<svg width="70" height="70" viewBox="0 0 70 70" fill="none" xmlns="http://www.w3.org/2000/svg">
<circle cx="35" cy="35" r="35" fill="#712A9B"/>
<g clip-path="url(#clip0_472_2696)">
<path d="M27.6177 30.6733C27.7965 30.8708 28.0147 31.0286 28.2582 31.1366C28.5017 31.2446 28.7652 31.3004 29.0316 31.3004C29.2979 31.3004 29.5614 31.2446 29.8049 31.1366C30.0484 31.0286 30.2666 30.8708 30.4454 30.6733L31.3598 29.6525C31.6234 29.361 31.9708 29.1581 32.3543 29.0718C32.7377 28.9855 33.1385 29.02 33.5016 29.1705C33.8647 29.321 34.1724 29.5801 34.3824 29.9124C34.5924 30.2446 34.6944 30.6337 34.6746 31.0262L34.606 32.3883C34.591 32.6548 34.6325 32.9215 34.7276 33.1709C34.8228 33.4202 34.9696 33.6467 35.1583 33.8354C35.347 34.0242 35.5735 34.1709 35.8229 34.2661C36.0723 34.3613 36.3389 34.4027 36.6054 34.3877L37.9675 34.3192C38.3603 34.2987 38.7497 34.4005 39.0823 34.6105C39.4149 34.8205 39.6742 35.1284 39.8247 35.4918C39.9751 35.8552 40.0093 36.2563 39.9224 36.6399C39.8356 37.0235 39.6321 37.3708 39.3398 37.634L38.3277 38.5483C38.1298 38.7269 37.9717 38.945 37.8634 39.1886C37.7552 39.4321 37.6992 39.6957 37.6992 39.9622C37.6992 40.2287 37.7552 40.4923 37.8634 40.7358C37.9717 40.9793 38.1298 41.1975 38.3277 41.376L39.3398 42.2904C39.6321 42.5536 39.8356 42.9009 39.9224 43.2845C40.0093 43.6681 39.9751 44.0692 39.8247 44.4326C39.6742 44.796 39.4149 45.1039 39.0823 45.3139C38.7497 45.5238 38.3603 45.6256 37.9675 45.6052L36.6054 45.5367C36.3392 45.5228 36.073 45.5651 35.8242 45.6606C35.5754 45.7562 35.3494 45.903 35.1609 46.0915C34.9724 46.28 34.8256 46.506 34.73 46.7548C34.6344 47.0037 34.5922 47.2698 34.606 47.536L34.6746 48.8981C34.6944 49.2907 34.5924 49.6798 34.3824 50.012C34.1724 50.3443 33.8647 50.6034 33.5016 50.7539C33.1385 50.9044 32.7377 50.9388 32.3543 50.8525C31.9708 50.7662 31.6234 50.5634 31.3598 50.2719L30.4454 49.251C30.2666 49.0536 30.0484 48.8958 29.8049 48.7878C29.5614 48.6798 29.2979 48.624 29.0316 48.624C28.7652 48.624 28.5017 48.6798 28.2582 48.7878C28.0147 48.8958 27.7965 49.0536 27.6177 49.251L26.7033 50.2719C26.4397 50.5634 26.0923 50.7662 25.7088 50.8525C25.3254 50.9388 24.9246 50.9044 24.5615 50.7539C24.1984 50.6034 23.8907 50.3443 23.6807 50.012C23.4707 49.6798 23.3687 49.2907 23.3885 48.8981L23.4571 47.536C23.4705 47.2699 23.4279 47.004 23.3322 46.7554C23.2364 46.5067 23.0896 46.2809 22.9012 46.0925C22.7128 45.9041 22.487 45.7573 22.2384 45.6616C21.9897 45.5658 21.7238 45.5233 21.4577 45.5367L20.0956 45.6052C19.7031 45.6251 19.314 45.523 18.9817 45.313C18.6495 45.103 18.3903 44.7953 18.2398 44.4322C18.0894 44.0691 18.0549 43.6683 18.1412 43.2849C18.2275 42.9014 18.4303 42.554 18.7219 42.2904L19.7354 41.376C19.9329 41.1972 20.0907 40.979 20.1987 40.7355C20.3067 40.492 20.3624 40.2286 20.3624 39.9622C20.3624 39.6958 20.3067 39.4324 20.1987 39.1889C20.0907 38.9453 19.9329 38.7271 19.7354 38.5483L18.7219 37.634C18.4303 37.3703 18.2275 37.0229 18.1412 36.6395C18.0549 36.256 18.0894 35.8552 18.2398 35.4921C18.3903 35.129 18.6495 34.8214 18.9817 34.6114C19.314 34.4014 19.7031 34.2993 20.0956 34.3192L21.4577 34.3877C21.7239 34.4015 21.9901 34.3593 22.2389 34.2637C22.4877 34.1681 22.7137 34.0214 22.9022 33.8329C23.0907 33.6444 23.2375 33.4184 23.3331 33.1695C23.4287 32.9207 23.4709 32.6545 23.4571 32.3883L23.3885 31.0262C23.3687 30.6337 23.4707 30.2446 23.6807 29.9124C23.8907 29.5801 24.1984 29.321 24.5615 29.1705C24.9246 29.02 25.3254 28.9855 25.7088 29.0718C26.0923 29.1581 26.4397 29.361 26.7033 29.6525L27.6177 30.6733Z" stroke="white" stroke-width="2" stroke-linecap="round" stroke-linejoin="round"/>
<path d="M29.0312 42.7046C30.5414 42.7046 31.7656 41.4804 31.7656 39.9702C31.7656 38.4601 30.5414 37.2358 29.0312 37.2358C27.5211 37.2358 26.2969 38.4601 26.2969 39.9702C26.2969 41.4804 27.5211 42.7046 29.0312 42.7046Z" stroke="white" stroke-width="2" stroke-linecap="round" stroke-linejoin="round"/>
<path d="M44.1807 24.2917C44.0725 24.2917 43.9668 24.3237 43.8768 24.3838C43.7869 24.4439 43.7168 24.5293 43.6754 24.6293C43.634 24.7292 43.6232 24.8391 43.6443 24.9452C43.6654 25.0513 43.7175 25.1488 43.794 25.2252C43.8704 25.3017 43.9679 25.3538 44.074 25.3749C44.1801 25.396 44.29 25.3852 44.3899 25.3438C44.4899 25.3024 44.5753 25.2323 44.6354 25.1424C44.6955 25.0524 44.7275 24.9467 44.7275 24.8385C44.7275 24.6935 44.6699 24.5544 44.5674 24.4518C44.4648 24.3493 44.3257 24.2917 44.1807 24.2917Z" stroke="white" stroke-width="2" stroke-linecap="round" stroke-linejoin="round"/>
<path d="M47.908 19.695C48.1059 19.618 48.3219 19.6002 48.5297 19.6438C48.7375 19.6875 48.9281 19.7907 49.0782 19.9408C49.2284 20.091 49.3316 20.2816 49.3752 20.4894C49.4189 20.6972 49.4011 20.9132 49.3241 21.111L48.5949 22.9865C48.5105 23.203 48.4974 23.4408 48.5575 23.6653C48.6175 23.8898 48.7476 24.0893 48.9288 24.2348L50.4966 25.4948C50.662 25.6276 50.7852 25.8057 50.8512 26.0074C50.9172 26.209 50.9232 26.4255 50.8683 26.6305C50.8134 26.8354 50.7001 27.02 50.5422 27.1617C50.3843 27.3034 50.1885 27.3961 49.9788 27.4285L47.9911 27.7362C47.7614 27.7714 47.5489 27.8788 47.3845 28.043C47.2201 28.2072 47.1123 28.4195 47.0768 28.6492L46.7691 30.6383C46.7366 30.848 46.6439 31.0438 46.5022 31.2017C46.3605 31.3596 46.176 31.4729 45.971 31.5278C45.766 31.5827 45.5496 31.5767 45.3479 31.5107C45.1463 31.4447 44.9682 31.3215 44.8353 31.156L43.5753 29.5883C43.4297 29.4072 43.2303 29.2771 43.0059 29.2168C42.7815 29.1565 42.5437 29.1692 42.327 29.2529L40.4516 29.9821C40.2537 30.0591 40.0377 30.0769 39.8299 30.0332C39.6221 29.9896 39.4315 29.8864 39.2813 29.7363C39.1312 29.5861 39.028 29.3955 38.9844 29.1877C38.9407 28.9799 38.9585 28.7639 39.0355 28.566L39.7647 26.6906C39.8491 26.4741 39.8622 26.2363 39.8021 26.0118C39.742 25.7873 39.6119 25.5878 39.4307 25.4423L37.863 24.1808C37.6979 24.0481 37.5749 23.8702 37.5091 23.6688C37.4433 23.4674 37.4375 23.2513 37.4923 23.0466C37.5472 22.842 37.6604 22.6577 37.8181 22.5163C37.9759 22.3748 38.1713 22.2823 38.3807 22.25L40.3684 21.9423C40.5982 21.9067 40.8106 21.7988 40.975 21.6345C41.1394 21.4701 41.2472 21.2576 41.2828 21.0279L41.5905 19.0417C41.6226 18.8319 41.715 18.6361 41.8566 18.4781C41.9981 18.32 42.1826 18.2066 42.3876 18.1517C42.5925 18.0968 42.809 18.1028 43.0106 18.1689C43.2122 18.235 43.3902 18.3584 43.5228 18.524L44.7843 20.0917C44.9299 20.2727 45.1294 20.4027 45.3538 20.4627C45.5783 20.5228 45.816 20.5098 46.0326 20.4256L47.908 19.695Z" stroke="white" stroke-width="2" stroke-linecap="round" stroke-linejoin="round"/>
</g>
<defs>
<clipPath id="clip0_472_2696">
<rect width="35" height="35" fill="white" transform="translate(17 17)"/>
</clipPath>
</defs>
</svg>
