<?xml version="1.0" encoding="UTF-8"?>
<!-- Created with Inkscape (http://www.inkscape.org/) -->
<svg width="204.61mm" height="118.18mm" version="1.1" viewBox="0 0 204.61 118.18" xmlns="http://www.w3.org/2000/svg">
 <defs>
  <clipPath id="clipPath3908">
   <path d="m1625.3 765.54h580v335h-580z"/>
  </clipPath>
 </defs>
 <g transform="translate(114.89 -458.14)">
  <g transform="matrix(.35278 0 0 -.35278 -688.26 846.39)">
   <g clip-path="url(#clipPath3908)">
    <g>
     <path d="m1623.4 760.94 1.9305 4.6005-3.5197-3.529z" fill="#009c87"/>
     <path d="m2150.9 782.15 18.125-21.61 15.503 19.378z" fill="#0091b4"/>
     <path d="m1620.7 763.6 1.0717-1.5893 3.5197 3.529z" fill="#009c87"/>
     <path d="m2182.5 1078.1 4.7202 27.486-20.033-17.942z" fill="#004d79"/>
     <path d="m1623.4 760.94 1.9462-0.39282-0.016 4.9934-1.9305-4.6005z" fill="#009c87"/>
     <path d="m2187.2 760.54-2.6218 19.378-15.503-19.378z" fill="#0090b5"/>
     <path d="m1625.3 765.54-4.9843 7e-3 0.3929-1.9463 4.5914 1.9397z" fill="#009c87"/>
     <path d="m2205.3 760.54 0.021 4.9455-18.146-4.9455h18.125z" fill="#0090b5"/>
     <path d="m1720.4 1071.5-4.4591 25.168-14.653-18.426z" fill="#007fcd"/>
     <path d="m1670.4 1003.7 7.0874-19.368 21.743 19.56z" fill="#0076bc"/>
     <path d="m1712.1 976.73 4.6706 27.056-18.755-17.41z" fill="#0087ba"/>
     <path d="m1734 841.07-16.753-18.167 26.022-7.1884z" fill="#00a191"/>
     <path d="m1643.4 1105.5 2.6218-19.378 15.503 19.378z" fill="#006ac6"/>
     <path d="m1625.3 765.54-4.9843 10.475v-10.469l4.9843-7e-3z" fill="#009c87"/>
     <path d="m2020.2 1082.4 20.644 0.2442-16.769 22.936z" fill="#009e91"/>
     <path d="m1620.3 1100.5 4.9458 0.021-4.7672 1.3084z" fill="#0069c5"/>
     <path d="m1642.8 855.54 4.2 20.9-20.394-6.2057z" fill="#009494"/>
     <path d="m1620.5 1101.9 4.7672-1.3084-4.2631 2.5027z" fill="#0069c5"/>
     <path d="m1621.8 1104.1-0.7819-1.012 4.2631-2.5027z" fill="#0069c5"/>
     <path d="m1816.7 811.05 18.414 8.3009-17.896 23.679z" fill="#00ae8e"/>
     <path d="m1625.2 1100.6-2.4694 4.2964-1.0118-0.7817z" fill="#0069c5"/>
     <path d="m1624 1105.4 1.2749-4.8005 0.054 4.979-1.3291-0.1785z" fill="#0069c5"/>
     <path d="m2194.2 796.95-9.6153 31.62-9.6154-31.62z" fill="#0090b5"/>
     <path d="m1624 1105.4-1.1945-0.5041 2.4694-4.2964z" fill="#0069c5"/>
     <path d="m1625.2 1100.6 18.179 4.979h-18.125l-0.054-4.979z" fill="#0069c5"/>
     <path d="m1701.3 1078.2-27.341-11.826 9.6926-15.73z" fill="#0077ca"/>
     <path d="m1932.8 1026.8-6.8169-17.421 23.162 8.3214z" fill="#00adb5"/>
     <path d="m1636.4 1069.1 9.6153-31.62 9.6154 31.62z" fill="#006ac4"/>
     <path d="m2035.7 1007.4-16.117 26.174-15.862-9.0072z" fill="#009697"/>
     <path d="m2210.3 1079.6-2.679 10.469-25.166-12.017z" fill="#004978"/>
     <path d="m2206.6 760.72 1.1945 0.50415-2.5025 4.2629z" fill="#0090b5"/>
     <path d="m1679.7 1083.9-18.125 21.61-15.503-19.378z" fill="#0071c8"/>
     <path d="m2205.3 765.49 2.5025-4.2629 1.0118 0.78173z" fill="#0090b5"/>
     <path d="m2205.3 760.54 1.3291 0.17846-1.308 4.767-0.021-4.9455z" fill="#0090b5"/>
     <path d="m1620.3 807.42v-20.937l16.132 10.469z" fill="#009a8a"/>
     <path d="m1940.8 848.04-13.642-21.421 21.658 1.2617z" fill="#00aba5"/>
     <path d="m2210.1 764.21-4.8003 1.2749 4.2962-2.4692z" fill="#0090b5"/>
     <path d="m2146.6 1061 19.019-2.7978-14.691 21.528z" fill="#005a7d"/>
     <path d="m2210.3 765.54-4.9789-0.0544 4.8003-1.2749 0.1786 1.3293z" fill="#0090b5"/>
     <path d="m2165.6 1058.2-15.001-20.141 22.804-4.7263z" fill="#00537c"/>
     <path d="m2113.3 911.58 19.526-33.382-0.3921 36.153z" fill="#0089a9"/>
     <path d="m2205.3 765.49 3.5143-3.4812 0.7819 1.012z" fill="#0090b5"/>
     <path d="m2194.6 1031.3-21.225 2.0275-1.2412-16.968z" fill="#005180"/>
     <path d="m2210.3 891.17-25.212-1.5823 16.234-19.355z" fill="#0085ad"/>
     <path d="m2207.8 1104.9-1.1945 0.5041-1.2549-4.7204z" fill="#004977"/>
     <path d="m2210.3 1100.5-0.1786 1.3294-4.7472-1.2283z" fill="#004977"/>
     <path d="m2121.3 1078.2 9.3825-28.1 15.879 10.836z" fill="#00657e"/>
     <path d="m2205.3 1105.5 0.074-4.8989 1.2549 4.7204-1.3291 0.1785z" fill="#004977"/>
     <path d="m2194.6 1031.3 15.656 27.4-22.264-7.1278z" fill="#005180"/>
     <path d="m2210.3 1058.7v20.937l-27.845-1.5483z" fill="#004b7a"/>
     <path d="m1670.4 1003.7-25.449 8.8371 11.417-26.308z" fill="#0076bc"/>
     <path d="m2210.1 1101.9-0.5041 1.1943-4.2431-2.4226z" fill="#004977"/>
     <path d="m1620.3 828.36v-20.937l25.747 21.152z" fill="#00988e"/>
     <g fill="#004977">
      <path d="m2208.8 1104.1-3.4612-3.4346 4.2431 2.4226z"/>
      <path d="m2205.4 1100.6-18.199 4.8989 20.446-15.469z"/>
      <path d="m2207.8 1104.9-2.4494-4.2163 3.4612 3.4346z"/>
      <path d="m2210.3 1100.5-4.9258 0.1011 2.2468-10.57z"/>
     </g>
     <path d="m1642.8 855.54 3.2439-26.966 14.603 11.905z" fill="#009494"/>
     <path d="m1849 1050.1 26.882-20.636 2.5132 22.08z" fill="#00a6d1"/>
     <path d="m2172.2 1016.3-21.563 21.695 5.9797-28.525z" fill="#005985"/>
     <path d="m1679.7 782.15v-21.61h18.125z" fill="#009e87"/>
     <path d="m2150.9 760.54-17.438 17.83-0.687-17.83z" fill="#0091b4"/>
     <path d="m1636.4 796.95-16.132-10.469 25.747-6.559z" fill="#009b89"/>
     <path d="m1620.3 1058.7 16.132 10.469-16.132 10.469z" fill="#006ac3"/>
     <path d="m1646 779.92 15.503-19.378 18.125 21.61z" fill="#009c88"/>
     <path d="m1620.3 1079.6 25.747 6.559-25.747 3.9096z" fill="#0069c5"/>
     <path d="m2210.3 807.42-16.132-10.469 16.132-10.469z" fill="#008fb5"/>
     <path d="m2210.3 786.48-25.747-6.559 25.747-3.9096z" fill="#0090b5"/>
     <path d="m2167.1 1087.6 20.033 17.942h-18.125z" fill="#005079"/>
     <path d="m2210.3 1100.5-2.679-10.469 2.679-10.469z" fill="#004977"/>
     <path d="m1625.3 765.54 0.016-4.9934h18.125l-18.141 4.9934z" fill="#009c87"/>
     <path d="m1636.4 1069.1 9.6153 17.028-25.747-6.559z" fill="#006ac4"/>
     <path d="m1646 779.92-25.747-3.9096 4.9843-10.475z" fill="#009c88"/>
     <path d="m1625.2 1100.6-4.9458-10.49 25.747-3.9096z" fill="#0069c5"/>
     <path d="m2194.2 796.95-9.6153-17.028 25.747 6.559z" fill="#0090b5"/>
     <path d="m2205.3 765.49 4.9789 10.523-25.747 3.9096z" fill="#0090b5"/>
     <path d="m2205.4 1100.6-0.074 4.8989h-18.125l18.199-4.8989z" fill="#004977"/>
     <path d="m2182.5 1078.1 25.166 12.017-20.446 15.469z" fill="#004d79"/>
     <path d="m2167.1 1087.6-16.217 11.37v-19.279z" fill="#005079"/>
     <path d="m1625.2 1100.6-4.9458-0.021v-10.469z" fill="#0069c5"/>
     <path d="m1646 779.92-20.762-14.385 18.141-4.9934z" fill="#009c88"/>
     <path d="m2205.3 765.49 4.9789 0.0544v10.469l-4.9789-10.523z" fill="#0090b5"/>
     <path d="m2165.6 1058.2 22.419-6.6235-5.5809 26.517z" fill="#00537c"/>
     <path d="m1620.3 1058.7 25.747-21.152-9.6153 31.62z" fill="#006ac3"/>
     <path d="m1661.6 1105.5 18.125-21.61v21.61z" fill="#006dc7"/>
     <path d="m1666.5 822.56-10.831-25.614 20.714 6.7333z" fill="#009a8d"/>
     <path d="m1636.4 796.95 9.6153 31.62-25.747-21.152z" fill="#009b89"/>
     <path d="m2210.3 807.42-25.747 21.152 9.6153-31.62z" fill="#008fb5"/>
     <path d="m2169 760.54-18.125 21.61v-21.61z" fill="#0090b5"/>
     <path d="m1646 1037.5-25.747 0.2146v-20.937z" fill="#006dc0"/>
     <path d="m1646 1086.2-9.6153-17.028h19.231z" fill="#006ac6"/>
     <path d="m1620.3 786.48v-10.469l25.747 3.9096z" fill="#009b88"/>
     <path d="m1636.4 796.95h19.231l-9.6154 31.62z" fill="#009b89"/>
     <path d="m2184.6 828.57 25.747-0.2146v20.937z" fill="#008fb4"/>
     <path d="m2184.6 779.92 9.6153 17.028h-19.231z" fill="#0090b5"/>
     <path d="m1683.6 1050.6-17.394-24.947 21.877-8.2767z" fill="#0073c5"/>
     <path d="m1666.2 1025.7 17.394 24.947-20.466-1.759z" fill="#0071c0"/>
     <path d="m1646 1086.2 9.6154-17.028 24.013 14.796z" fill="#006ac6"/>
     <path d="m1646 1086.2-2.6218 19.378-18.179-4.979z" fill="#006ac6"/>
     <path d="m1661.6 760.54-15.503 19.378-2.6218-19.378z" fill="#009d87"/>
     <path d="m1655.7 796.95h-19.231l9.6153-17.028z" fill="#009c89"/>
     <path d="m1646 779.92 33.628 2.2322-24.013 14.795z" fill="#009c88"/>
     <path d="m1700.5 804.8-20.804-22.641 23.433 1.2476z" fill="#00a089"/>
     <path d="m2160.8 846.24-15.167 14.962 0.6412-26.814z" fill="#008fb3"/>
     <path d="m2146.3 834.39 21.066-17.027-6.5399 28.879z" fill="#008fb3"/>
     <path d="m2184.6 779.92-9.6154 17.028-24.013-14.795z" fill="#0090b5"/>
     <path d="m2184.6 779.92 2.6218-19.378 18.146 4.9455z" fill="#0090b5"/>
     <path d="m2096.6 1060.8 18.68-0.2774-15.863 22.625z" fill="#007583"/>
     <path d="m2188 1051.5-22.419 6.6235 7.8027-24.868z" fill="#004e7c"/>
     <path d="m2150.9 1099 16.217-11.37 1.9077 17.942z" fill="#00577a"/>
     <path d="m2165.6 1058.2 1.526 29.437-16.217-7.9091z" fill="#00537c"/>
     <path d="m2169 1105.5h-36.25l18.125-6.5717z" fill="#004f78"/>
     <path d="m2135.7 1088.3 15.256 10.696-18.125 6.5717z" fill="#005d7b"/>
     <path d="m2060.8 1068.9-5.9691-23.604 22.613-9.0242z" fill="#008988"/>
     <path d="m2172.2 1016.3-4.1302-24.086 22.285 12.162z" fill="#005985"/>
     <path d="m2167.1 1087.6-1.526-29.437 16.838 19.893z" fill="#005079"/>
     <path d="m2121.3 1078.2 25.261-17.264-10.928 27.313z" fill="#00657e"/>
     <path d="m2194.6 1031.3-6.6087 20.272-14.617-18.244z" fill="#005180"/>
     <path d="m2182.5 1078.1 5.5809-26.517 22.264 7.1278z" fill="#004d79"/>
     <path d="m2094.5 1019.3-17.083 17.025-7.8176-18.171z" fill="#007a8b"/>
     <path d="m2146.6 1061 4.0177-22.939 15.001 20.141z" fill="#005a7d"/>
     <path d="m2173.4 1033.3-22.804 4.7263 21.563-21.695z" fill="#005480"/>
     <path d="m2210.3 1058.7-15.656-27.4 15.656-14.475z" fill="#004b7a"/>
     <path d="m2146.6 1061 4.3277 18.73-15.256 8.5831z" fill="#005a7d"/>
     <path d="m2146.6 1061-15.879-10.836 19.896-12.104z" fill="#005a7d"/>
     <path d="m2156.6 1009.5-19.939-3.2722 14.024-25.266z" fill="#006088"/>
     <path d="m2124 969.25 8.0373 17.899-22.788-3.4941z" fill="#007797"/>
     <path d="m2092.4 1044.4 16.079-5.428-11.902 21.876z" fill="#007886"/>
     <path d="m2109.7 952.6-25.848-11.331 26.141-10.637z" fill="#00809d"/>
     <path d="m2156.5 900.72 19.394 7.5282-15.414 10.964z" fill="#0085ab"/>
     <path d="m2165.2 874-4.4197-27.757 24.358 7.9467z" fill="#008bb1"/>
     <path d="m2129 1024.9 21.592 13.089-19.896 12.104z" fill="#006786"/>
     <path d="m2190.3 1004.4 4.3117 26.864-22.467-14.941z" fill="#005a88"/>
     <path d="m2150.7 980.96 17.368 11.283-11.453 17.256z" fill="#006b91"/>
     <path d="m2168 973.23v19.005l-17.368-11.283 17.366-7.7226z" fill="#006a93"/>
     <path d="m2078.4 1091.9 20.942-8.7118-2.8167 22.347z" fill="#007e83"/>
     <path d="m2115.2 1060.6 6.1065 17.655-21.969 4.9694z" fill="#006a81"/>
     <path d="m2129 1024.9 27.572-15.436-5.9797 28.525z" fill="#006786"/>
     <path d="m2129 1024.9 1.6961 25.193-22.267-11.155z" fill="#006786"/>
     <path d="m2130.7 1050.1-15.489 10.444-6.7777-21.599z" fill="#006380"/>
     <path d="m2136.7 1006.2-7.6335 18.708-12.293-22.055z" fill="#00688a"/>
     <path d="m2077.5 1036.3 14.907 8.11-12.033 27.807z" fill="#00818a"/>
     <path d="m2129 1024.9-20.571 14.038-13.904-19.707z" fill="#006786"/>
     <path d="m2109.3 983.65 22.788 3.4941-15.331 15.727z" fill="#007994"/>
     <path d="m2156.6 1009.5-27.572 15.436 7.6335-18.708z" fill="#006088"/>
     <path d="m2054.9 1045.3-16.522-9.1519 11.814-14.736z" fill="#008d8d"/>
     <path d="m2092.4 1044.4 2.1758-25.135 13.904 19.707z" fill="#007886"/>
     <path d="m2080.3 1072.2 19.027 10.989-20.942 8.7118z" fill="#007e84"/>
     <path d="m2054.9 1045.3 14.796-27.195 7.8176 18.171z" fill="#008d8d"/>
     <path d="m2092.4 1044.4 4.1774 16.448-16.21 11.358z" fill="#007886"/>
     <path d="m2094.5 1019.3-2.1758 25.135-14.907-8.11z" fill="#007a8b"/>
     <path d="m2168 992.24 4.1302 24.086-15.583-6.83z" fill="#00638d"/>
     <path d="m2190.3 1004.4-22.285-12.162 20.78-9.5052z" fill="#005a88"/>
     <path d="m2168 973.23 10.354-15.938 10.429 25.437z" fill="#006a93"/>
     <path d="m2151 958.21 17.083 15.027-17.366 7.7226z" fill="#007399"/>
     <path d="m2201 953.98-22.649 3.3173 7.57-23.15z" fill="#006e99"/>
     <path d="m2210.3 1016.8-15.656 14.475-4.3117-26.864z" fill="#005584"/>
     <path d="m2188.8 982.73 21.472 13.12-19.967 8.548z" fill="#00638f"/>
     <path d="m2178.4 957.3 22.649-3.3173-12.22 28.755z" fill="#006f98"/>
     <path d="m2145.6 861.2-14.435-15.67 15.076-11.145z" fill="#008fb3"/>
     <path d="m2168 992.24v-19.005l20.782 9.4999-20.78 9.5052z" fill="#00638d"/>
     <path d="m2210.3 1016.8-19.967-12.389 19.967-8.548z" fill="#005584"/>
     <path d="m2188.8 982.73 21.472-7.8175v20.937z" fill="#00638f"/>
     <path d="m2150.9 1099-15.256-10.696 15.256-8.5831z" fill="#00577a"/>
     <path d="m2114.7 1097.1 20.994-8.8102-2.869 17.268z" fill="#00697e"/>
     <path d="m2108.5 1039 6.7777 21.599-18.68 0.2774z" fill="#007085"/>
     <path d="m2135.7 1088.3-20.994 8.8102 6.6611-18.859z" fill="#005d7b"/>
     <path d="m2130.7 1050.1-9.3825 28.1-6.1065-17.655z" fill="#006380"/>
     <path d="m2042.2 1105.5h-18.125l16.769-22.936z" fill="#00948a"/>
     <path d="m2054.9 1045.3-4.7074-23.888 19.503-3.3073z" fill="#008d8d"/>
     <path d="m2032.9 973.79 18.009 20.417-29.624-0.84374z" fill="#00989e"/>
     <path d="m2094.9 968.86 14.361 14.794-11.202 15.402z" fill="#008299"/>
     <path d="m2114.7 1097.1-15.308-13.89 21.969-4.9694z" fill="#00697e"/>
     <path d="m2096.6 1105.5h-36.25l18.125-13.636z" fill="#007380"/>
     <path d="m1919 1039.5 13.797-12.633 16.928 15.457z" fill="#00adbb"/>
     <path d="m2078.4 1091.9-17.439-4.8808 19.354-14.82z" fill="#007e83"/>
     <path d="m2132.8 1105.5h-36.25l18.125-8.4577z" fill="#005e7b"/>
     <path d="m2099.4 1083.2 15.308 13.89-18.125 8.4577z" fill="#007280"/>
     <path d="m2060.8 1068.9-27.042-5.7185 21.073-17.886z" fill="#008988"/>
     <path d="m2019.8 1051.7 18.502-15.502-4.5511 27.038z" fill="#009e93"/>
     <path d="m1994.5 1040.2 25.371 11.42-13.687 11.849z" fill="#00a69d"/>
     <path d="m2033.8 1063.2-27.638 0.3125 13.687-11.849z" fill="#00988f"/>
     <path d="m2050.9 994.21 18.708 23.905-19.503 3.3073z" fill="#009097"/>
     <path d="m2094.5 1019.3-24.901-1.1457 9.4536-17.376z" fill="#007a8b"/>
     <path d="m2098.1 999.06-3.5233 20.206-15.447-18.522z" fill="#007b90"/>
     <path d="m2129 1024.9-34.474-5.6692 22.181-16.386z" fill="#006786"/>
     <path d="m2080.3 1072.2-19.519-3.2885 16.644-32.628z" fill="#007e84"/>
     <path d="m2099.4 1083.2-19.027-10.989 16.21-11.358z" fill="#007280"/>
     <path d="m1933.4 1099.3 18.297-16.861-0.1721 23.141z" fill="#00aeb4"/>
     <path d="m2020.2 1082.4-14.034-18.851 27.638-0.3125z" fill="#009e91"/>
     <path d="m2080.3 1072.2-19.354 14.82-0.1646-18.108z" fill="#007e84"/>
     <path d="m2060.3 1105.5 0.6857-18.516 17.439 4.8808z" fill="#008986"/>
     <path d="m1911 910.09-22.905-1.3481 23.508-21.253z" fill="#00aead"/>
     <path d="m2033.8 1063.2 4.5511-27.038 16.522 9.1519z" fill="#00988f"/>
     <path d="m2035.7 1007.4 2.5902 28.774-18.707-2.6004z" fill="#009697"/>
     <path d="m2061 1087-20.167-4.4191 20.002-13.689z" fill="#008987"/>
     <path d="m2005.9 1096.7-18.025-13.844 32.275-0.4522z" fill="#00a395"/>
     <path d="m2040.8 1082.6-20.644-0.2442 13.604-19.164z" fill="#00948b"/>
     <path d="m2038.3 1036.2-18.502 15.502-0.2047-18.102z" fill="#009591"/>
     <path d="m2005.9 1096.7 14.25-14.296 3.8749 23.18z" fill="#00a395"/>
     <path d="m2060.8 1068.9-20.002 13.689-7.0396-19.408z" fill="#008988"/>
     <path d="m2061 1087-0.6857 18.516h-18.125z" fill="#008987"/>
     <path d="m2024 1105.5h-36.25l18.125-8.8839z" fill="#009d8f"/>
     <path d="m2005.9 1096.7-18.125 8.8839 0.1-22.728 18.025 13.844z" fill="#00a395"/>
     <path d="m1806.6 760.54h36.25l-18.125 17.687z" fill="#00af87"/>
     <path d="m2061 1087-18.811 18.516-1.3561-22.936z" fill="#008987"/>
     <path d="m1764.4 810.68-2.6624 26.154-18.454-21.119z" fill="#00a88a"/>
     <path d="m1688.1 1017.4-21.877 8.2767 4.175-22.016z" fill="#0077c0"/>
     <path d="m1655.7 1069.1 18.269-2.7656 5.744 17.561z" fill="#006cc5"/>
     <path d="m1730.2 1053-23.543 3.4937 14.738-23.491z" fill="#0083cc"/>
     <path d="m1646 1037.5 20.183-11.822-3.0726 23.188z" fill="#006dc0"/>
     <path d="m1679.7 1083.9 18.125 21.61h-18.125z" fill="#0071c8"/>
     <path d="m1716.8 1003.8-17.104 32.1-0.4274-32.021 17.532-0.079z" fill="#0083c1"/>
     <path d="m1663.2 1048.9-7.4953 20.255-9.6154-31.62z" fill="#006fc3"/>
     <path d="m1701.3 1078.2-17.648-27.556 23.064 5.8774z" fill="#0077ca"/>
     <path d="m1683.6 1050.6-9.6926 15.73-10.774-17.489z" fill="#0073c5"/>
     <path d="m1655.7 1069.1 7.4953-20.255 10.774 17.489z" fill="#006cc5"/>
     <path d="m1620.3 1016.8 24.656-4.2782 1.0904 25.001z" fill="#006fbc"/>
     <path d="m1666.2 1025.7-20.183 11.822-1.0904-25.001z" fill="#0071c0"/>
     <path d="m1658.4 969.36 16.058-5.4499 3.0751 20.394z" fill="#007cb3"/>
     <path d="m1656.4 986.2-11.417 26.308-15.59-16.659z" fill="#0077b7"/>
     <path d="m1620.3 1016.8v-41.874l9.0664 20.937z" fill="#006fbc"/>
     <path d="m1645 1012.5-24.656 4.2782 9.0664-20.937z" fill="#0071bc"/>
     <path d="m1658.4 969.36-18.93 7.7025 5.7492-18.372z" fill="#007cb3"/>
     <path d="m1646 828.57 20.447-6.0068-5.8435 17.911z" fill="#00988e"/>
     <path d="m1770 859.27 10.314 27.938-18.874 1.4907z" fill="#00a698"/>
     <path d="m1639.4 977.07-10.064 18.787-9.0664-20.937z" fill="#0078b4"/>
     <path d="m1698 986.38 1.2234 17.489-21.743-19.56z" fill="#0080bb"/>
     <path d="m1645 1012.5 25.449-8.8371-4.175 22.016z" fill="#0071bc"/>
     <path d="m1656.4 986.2 1.9864-16.841 19.133 14.944z" fill="#0077b7"/>
     <path d="m1666.8 908.14 29.231 11.265-30.24 8.1774z" fill="#008ca2"/>
     <path d="m1690.2 970.94 21.882 5.788-14.085 9.6456z" fill="#0081b6"/>
     <path d="m1620.3 933.04 22.403 3.164-22.403 17.773z" fill="#0082a8"/>
     <path d="m1634.1 916.06 14.981-15.975 16.714 27.5z" fill="#0087a4"/>
     <path d="m1639.4 977.07 18.93-7.7025-1.9864 16.841z" fill="#0078b4"/>
     <path d="m1662.2 947.61-3.883 21.752-13.18-10.669z" fill="#0081ad"/>
     <path d="m1629.4 995.85 10.064-18.787 16.943 9.1381z" fill="#0073b8"/>
     <path d="m1620.3 953.98 19.13 23.087-19.13-2.1501z" fill="#007dae"/>
     <path d="m1703.1 783.4-23.433-1.2476 18.125-21.61z" fill="#00a187"/>
     <path d="m1639.4 977.07-19.13-23.087 24.879 4.7158z" fill="#0078b4"/>
     <path d="m1655.7 796.95 24.013-14.795-3.2992 21.529z" fill="#009c89"/>
     <path d="m1721.1 798.48-17.98-15.08 19.886-5.4518z" fill="#00a388"/>
     <path d="m1679.7 782.15-18.125-21.61h18.125z" fill="#009e87"/>
     <path d="m1741.8 777.66-3.0423 21.008-15.739-20.723z" fill="#00a786"/>
     <path d="m1687.8 822.23 12.678-17.431 16.818 18.106z" fill="#009c8d"/>
     <path d="m1708.6 906.5 10.919 33.718-16.861-4.6086z" fill="#0093a4"/>
     <path d="m1741.8 777.66-18.781 0.2854 11.055-17.406z" fill="#00a786"/>
     <path d="m1700.5 804.8 2.629-21.393 17.98 15.08z" fill="#00a089"/>
     <path d="m1717.3 822.9-16.818-18.106 20.609-6.3132z" fill="#00a08d"/>
     <path d="m1697.8 760.54h36.25l-11.055 17.406z" fill="#00a186"/>
     <path d="m1700.5 804.8-12.678 17.431-11.426-18.543z" fill="#00a089"/>
     <path d="m1743.3 815.71-22.232-17.231 17.646 0.19091z" fill="#00a58b"/>
     <path d="m1717.3 822.9 16.753 18.167-21.216 2.7568z" fill="#00a08d"/>
     <path d="m1697.8 760.54 25.195 17.406-19.886 5.4518z" fill="#00a186"/>
     <path d="m1770.3 760.54-3.5749 17.483-24.949-0.36254z" fill="#00ab85"/>
     <path d="m1766.7 778.03 21.7-11.55-10.187 25.184z" fill="#00aa85"/>
     <path d="m1764.4 810.68-21.117 5.0351 11.425-24.46z" fill="#00a88a"/>
     <path d="m1770.3 760.54-28.524 17.121-7.7261-17.121z" fill="#00ab85"/>
     <path d="m1741.8 777.66 12.968 13.588-16.011 7.4201z" fill="#00a786"/>
     <path d="m1721.1 798.48 22.232 17.231-26.022 7.1884z" fill="#00a388"/>
     <path d="m1778.2 791.66 5.8675 28.203-19.669-9.1869z" fill="#00ab87"/>
     <path d="m1700.5 804.8-24.104-1.1118 3.2992-21.529z" fill="#00a089"/>
     <path d="m1666.5 822.56 9.8824-18.88 11.426 18.543z" fill="#009a8d"/>
     <path d="m1717.3 822.9-4.4636 20.924-25.032-21.599z" fill="#00a08d"/>
     <path d="m1655.7 796.95 10.831 25.614-20.447 6.0068z" fill="#009c89"/>
     <path d="m1683.2 863.85-17.22-5.3017 20.471-12.42z" fill="#009696"/>
     <path d="m1662.2 947.61 12.175 16.302-16.058 5.4499z" fill="#0081ad"/>
     <path d="m1666.5 822.56 19.938 23.568-25.782-5.6562z" fill="#009a8d"/>
     <path d="m1642.8 855.54-22.503-6.2433 25.747-20.723z" fill="#009494"/>
     <path d="m1686.4 846.13-19.938-23.568 21.308-0.33765z" fill="#009992"/>
     <path d="m1660.6 840.48 5.3106 18.076-23.158-3.0151z" fill="#009790"/>
     <path d="m1649.1 900.08 19.212-23.239 9.9394 15.535z" fill="#008ca0"/>
     <path d="m1668.3 876.84-21.314-0.40698 18.958-17.885z" fill="#00929a"/>
     <path d="m1642.7 936.21-22.403-3.164 13.824-16.986z" fill="#0082aa"/>
     <path d="m1634.1 916.06 31.695 11.525-23.115 8.6244z" fill="#0087a4"/>
     <path d="m1738.7 798.67-17.646-0.19091 1.9066-20.532z" fill="#00a588"/>
     <path d="m1754.7 791.25-11.425 24.46-4.586-17.04z" fill="#00a887"/>
     <path d="m1806.6 760.54 18.125 17.687-25.055 3.6858z" fill="#00af87"/>
     <path d="m1734 841.07 9.2698-25.355 18.454 21.119z" fill="#00a191"/>
     <path d="m1662.2 947.61-17.063 11.083-2.4762-22.489z" fill="#0081ad"/>
     <path d="m1728.5 865.65 7.481 22.047-26.29 0.87597z" fill="#009d98"/>
     <path d="m1703.4 863.03-10.804 16.19-9.414-15.363z" fill="#009997"/>
     <path d="m1647 876.44-26.703 14.732 6.3085-20.937z" fill="#009099"/>
     <path d="m1734 841.07 27.724-4.2363-11.802 15.597z" fill="#00a191"/>
     <path d="m1683.2 863.85-14.864 12.99-2.3563-18.292z" fill="#009696"/>
     <path d="m1728.5 865.65-15.637-21.826 21.216-2.7568z" fill="#009d98"/>
     <path d="m1712.8 843.82-9.4348 19.201-16.967-16.895z" fill="#009e92"/>
     <path d="m1787.6 847.58-25.778-10.748 22.332-16.967z" fill="#00a996"/>
     <path d="m1728.5 865.65-25.071-2.625 9.4348-19.201z" fill="#009d98"/>
     <path d="m1778.2 791.66-13.802 19.016-9.6921-19.425z" fill="#00ab87"/>
     <path d="m1761.8 836.83 2.6624-26.154 19.669 9.1869z" fill="#00a691"/>
     <path d="m1766.7 778.03 11.513 13.634-23.494-0.40869z" fill="#00aa85"/>
     <path d="m1799.6 781.92 14.433 11.11-18.303 9.7037z" fill="#00ae87"/>
     <path d="m1741.8 777.66 24.949 0.36254-11.98 13.225z" fill="#00a786"/>
     <path d="m1766.7 778.03 3.5749-17.483 18.125 5.933z" fill="#00aa85"/>
     <path d="m1645.2 958.7-24.879-4.7158 22.403-17.773z" fill="#007db0"/>
     <path d="m1686.4 942.24-20.618-14.66 30.24-8.1774z" fill="#0087ae"/>
     <path d="m1666 858.55-18.958 17.885-4.2-20.9z" fill="#009595"/>
     <path d="m1665.8 927.58-3.5757 20.03-19.54-11.406z" fill="#0087a8"/>
     <path d="m1626.6 870.23-6.3085-20.937 22.503 6.2433z" fill="#009197"/>
     <path d="m1620.3 891.17 28.805 8.9142-14.981 15.975z" fill="#008c9d"/>
     <path d="m1678.3 892.38-11.428 15.761-17.723-8.0575z" fill="#00909e"/>
     <path d="m1620.3 933.04v-41.874l13.824 24.889z" fill="#0082a8"/>
     <path d="m1842.8 778.72-18.165-0.48388 18.125-17.687 0.04 18.171z" fill="#00b08e"/>
     <path d="m2085 847.31-7.6064-22.595 19.554 0.28174z" fill="#0094b1"/>
     <path d="m1755.7 962.58 15.673-17.545 6.1661 17.475-21.839 0.0696z" fill="#0098bc"/>
     <path d="m1704.6 961.38-14.409 9.5602-3.7794-28.703z" fill="#0087b5"/>
     <path d="m1620.3 891.17v-41.875l6.3085 20.937z" fill="#008c9d"/>
     <path d="m1668.3 876.84-19.212 23.239-2.1017-23.646z" fill="#00929a"/>
     <path d="m1620.3 891.17 26.703-14.732 2.1017 23.646z" fill="#008c9d"/>
     <path d="m1799.6 781.92 25.055-3.6858-10.622 14.795z" fill="#00ae87"/>
     <path d="m1798 886.33-17.714 0.87279 5.473-17.893z" fill="#00a8a4"/>
     <path d="m1761.8 836.83 8.1832 22.437-19.986-6.8393z" fill="#00a691"/>
     <path d="m1743 922.19-16.678-13.286 32.021-1.5217z" fill="#0099ac"/>
     <path d="m1686.4 942.24-12.019 21.673-12.175-16.302z" fill="#0087ae"/>
     <path d="m1665.8 927.58-16.714-27.5 17.723 8.0575z" fill="#0087a8"/>
     <path d="m1795.7 802.73-11.644 17.134-5.8675-28.203z" fill="#00ad8a"/>
     <path d="m1785.7 869.31-5.473 17.893-10.314-27.938z" fill="#00a79d"/>
     <path d="m1770 859.27-8.1832-22.437 25.778 10.748z" fill="#00a698"/>
     <path d="m1728.5 865.65 21.502-13.222 2.9546 19.335z" fill="#009d98"/>
     <path d="m1787.6 847.58 16.009 5.3742-17.818 16.359z" fill="#00a996"/>
     <path d="m1752.9 871.76-2.9546-19.335 19.986 6.8393z" fill="#00a19b"/>
     <path d="m2174.9 796.95-18.344 2.8877-5.6688-17.683z" fill="#0090b4"/>
     <path d="m2109.6 804.12 21.155 1.312-12.793 14.122z" fill="#0093b3"/>
     <path d="m2184.6 828.57-23.762 17.668 6.5399-28.879z" fill="#008fb4"/>
     <path d="m2133.5 778.37 17.438-17.83v21.61z" fill="#0091b4"/>
     <path d="m2118 819.56 28.88-3.9091-0.5875 18.739z" fill="#0091b3"/>
     <path d="m2167.3 817.36 7.6068-20.409 9.6154 31.62z" fill="#008fb4"/>
     <g fill="#0090b4">
      <path d="m2156.6 799.84-9.7413 15.81-16.087-10.213z"/>
      <path d="m2146.9 815.65 9.7413-15.81 10.737 17.522z"/>
      <path d="m2174.9 796.95-7.6068 20.409-10.737-17.522z"/>
     </g>
     <path d="m2210.3 849.29-25.15 4.892-0.5963-25.615z" fill="#008db3"/>
     <path d="m2160.8 846.24 23.762-17.668 0.5963 25.615z" fill="#008fb3"/>
     <path d="m2118 819.56 28.292 14.829-15.076 11.145z" fill="#0091b3"/>
     <path d="m2167.3 817.36-21.066 17.027 0.5875-18.739z" fill="#008fb4"/>
     <path d="m2196.3 912.1 13.97 20.937-24.331 1.105z" fill="#007fa7"/>
     <path d="m2210.3 891.17-13.97 20.937-11.242-22.52z" fill="#0085ad"/>
     <path d="m2151 958.21 27.436-0.91015-10.354 15.938z" fill="#007399"/>
     <path d="m2185.1 854.19 25.15-4.892-8.9784 20.937z" fill="#008db2"/>
     <path d="m2145.6 861.2 19.587 12.795-15.217 9.8178z" fill="#008fb3"/>
     <path d="m2210.3 849.29v41.875l-8.9784-20.937z" fill="#008db3"/>
     <path d="m2185.1 889.59-19.877-15.59 17.71-2.114z" fill="#0086ad"/>
     <path d="m2182.9 871.88 18.4-1.6511-16.234 19.355z" fill="#008ab0"/>
     <path d="m2165.2 874-8.7177 26.72-6.4996-16.903z" fill="#008bb1"/>
     <path d="m2196.3 912.1 13.97-20.937v41.874z" fill="#007fa7"/>
     <path d="m2156.5 900.72 8.7177-26.72 19.877 15.59z" fill="#0085ab"/>
     <path d="m2165.2 874 19.939-19.81-2.2283 17.696z" fill="#008bb1"/>
     <path d="m2201.3 870.23-18.4 1.6511 2.2283-17.696z" fill="#008ab0"/>
     <path d="m2210.3 933.04-9.2523 20.937-15.079-19.832z" fill="#0077a1"/>
     <path d="m2185.1 889.59 11.242 22.52-20.443-3.8608z" fill="#0086ad"/>
     <path d="m2168.6 941.29 17.349-7.1393-7.57 23.15z" fill="#00769e"/>
     <path d="m2185.1 889.59-9.2006 18.659-19.394-7.5282z" fill="#0086ad"/>
     <path d="m2196.3 912.1-10.362 22.042-10.081-25.903z" fill="#007fa7"/>
     <path d="m2186 934.15-17.349 7.1393-8.1461-22.079z" fill="#0077a0"/>
     <g fill="#007797">
      <path d="m2124 969.25-14.336-16.648 19.653-10.724z"/>
      <path d="m2124 969.25 5.3168-27.372 21.622 16.329z"/>
      <path d="m2124 969.25 26.938-11.042-0.2825 22.75z"/>
     </g>
     <path d="m2151 958.21-0.1745-22.751 17.832 5.831z" fill="#007399"/>
     <path d="m2186 934.15-25.495-14.939 15.414-10.964z" fill="#0077a0"/>
     <path d="m2132.4 914.35 28.088 4.8584-9.6856 16.248z" fill="#0085a8"/>
     <path d="m2151 958.21 17.657-16.92 9.7793 16.01z" fill="#007399"/>
     <path d="m2160.5 919.21 8.1461 22.079-17.832-5.831z" fill="#007fa6"/>
     <path d="m2132.1 987.15 18.619-6.1911-14.024 25.266z" fill="#007091"/>
     <path d="m2124 969.25-29.111-0.38867 14.775-16.259z" fill="#007797"/>
     <path d="m2150.8 935.46-21.447 6.422 3.0442-27.528z" fill="#007ba1"/>
     <path d="m2156.5 900.72 3.9803 18.492-28.088-4.8584z" fill="#0085ab"/>
     <path d="m2116.7 1002.9 15.331-15.727 4.5948 19.075z" fill="#00728d"/>
     <path d="m2124 969.25 26.656 11.708-18.619 6.1911z" fill="#007797"/>
     <path d="m2098.1 999.06 11.202-15.402 7.4564 19.221z" fill="#007b90"/>
     <path d="m2094.9 968.86 29.111 0.38867-14.75 14.405z" fill="#008299"/>
     <path d="m2094.5 1019.3 3.5233-20.206 18.658 3.8193z" fill="#007a8b"/>
     <path d="m2098.1 999.06-18.97 1.6836-0.8464-20.281z" fill="#007b90"/>
     <path d="m2033.8 927.88 28.166 18.036-18.604 7.6666z" fill="#0099a6"/>
     <path d="m2103.6 863.24 18.876-0.91772-9.1575 17.838z" fill="#0091b2"/>
     <path d="m2165.2 874-19.587-12.795 15.167-14.962z" fill="#008bb1"/>
     <path d="m2122.5 862.32 23.103-1.123-12.847 16.996z" fill="#008fb3"/>
     <path d="m2132.4 914.35 17.609-30.536 6.4996 16.903z" fill="#0085a8"/>
     <path d="m2145.6 861.2 4.3697 22.613-17.216-5.6169z" fill="#008fb3"/>
     <path d="m2089.2 917.13 12.718-21.194 11.367 15.638z" fill="#008da7"/>
     <path d="m2129.3 941.88-19.653 10.724 0.2933-21.968z" fill="#007ea0"/>
     <path d="m2129.3 941.88-19.359-11.244 22.404-16.284z" fill="#007ea0"/>
     <path d="m2151 958.21-21.622-16.329 21.447-6.422z" fill="#007399"/>
     <path d="m2113.3 911.58 19.134 2.771-22.404 16.284z" fill="#0089a9"/>
     <path d="m2150 883.81-17.609 30.536 0.3921-36.153z" fill="#008aaf"/>
     <path d="m2083.8 941.27-21.851 4.6416-0.1341-22.338z" fill="#008aa1"/>
     <path d="m2092.2 806.03 10.889-26.758 6.5614 24.853z" fill="#0095b2"/>
     <path d="m2089.2 917.13 20.815 13.499-26.141 10.637z" fill="#008da7"/>
     <path d="m2113.3 911.58-11.367-15.638 11.479-15.779z" fill="#0089a9"/>
     <path d="m2210.3 933.04v41.875l-9.2523-20.937z" fill="#0077a1"/>
     <path d="m1646 1037.5-25.747 21.152v-20.937z" fill="#006dc0"/>
     <path d="m1646 828.57-25.747 20.723v-20.937z" fill="#00988e"/>
     <path d="m2184.6 828.57 25.747-21.152v20.937z" fill="#008fb4"/>
     <path d="m2188.8 982.73 12.22-28.755 9.2523 20.937z" fill="#00638f"/>
     <path d="m2019.8 1051.7-25.371-11.42 25.166-6.6816z" fill="#009e93"/>
     <path d="m1826.2 898.49 24.045-3.0942-13.134 17.372z" fill="#00acaa"/>
     <path d="m1871.8 892.61-8.5647 26.286-13.036-23.506z" fill="#00afaa"/>
     <path d="m2043.4 953.58-10.456 20.216-9.6619-20.607z" fill="#0095a1"/>
     <path d="m1799.6 781.92-11.195-15.44 18.125-5.933z" fill="#00ae87"/>
     <path d="m1862.3 772.39 23.746 15.793-14.192 11.105z" fill="#00b191"/>
     <path d="m1817.2 843.03-16.889-11.107 16.371-20.873z" fill="#00ad97"/>
     <path d="m1788.4 766.48 11.195 15.44-21.381 9.7445z" fill="#00ad85"/>
     <path d="m1770.3 760.54h36.25l-18.125 5.933z" fill="#00ab85"/>
     <path d="m1879 815.82 12.387-11.564 13.136 10.705z" fill="#00b099"/>
     <path d="m1850.2 895.39-24.045 3.0942 6.9405-16.575z" fill="#00aeaa"/>
     <path d="m1814.1 793.03 10.622-14.795 10.33 20.918z" fill="#00af8a"/>
     <path d="m1835 799.15 0.1127 20.198-18.414-8.3009z" fill="#00b08f"/>
     <path d="m1891.4 804.26-19.552-4.9704 14.192-11.105z" fill="#00b09a"/>
     <path d="m1870.1 843.04-13.056-25.899 22.002-1.3154z" fill="#00af9d"/>
     <path d="m1824.7 778.23 18.165 0.48388-7.8345 20.434z" fill="#00b08a"/>
     <path d="m1816.7 811.05-16.371 20.873-4.5833-29.189z" fill="#00ae8e"/>
     <path d="m1857 817.14-10.921 19.145-11.009-16.935z" fill="#00b096"/>
     <path d="m1816.7 811.05-2.651-18.02 20.952 6.1225z" fill="#00ae8e"/>
     <path d="m1870.1 843.04 8.9462-27.215 13.315 16.037z" fill="#00af9d"/>
     <path d="m1846.1 836.28-28.905 6.7446 17.896-23.679z" fill="#00af98"/>
     <path d="m1857 817.14-22.043-17.988 20.525-7.4291z" fill="#00b096"/>
     <path d="m1853.9 854.5-7.808-18.217 23.977 6.7543z" fill="#00af9e"/>
     <path d="m1835 799.15 22.043 17.988-21.93 2.2104z" fill="#00b08f"/>
     <path d="m1871.9 799.29-14.837 17.849-1.5173-25.417z" fill="#00b095"/>
     <path d="m1785.7 869.31 17.818-16.359 0.8871 16.864z" fill="#00a79d"/>
     <path d="m1800.3 831.92-12.781 15.661-3.4464-27.716z" fill="#00ac92"/>
     <path d="m1862.3 772.39-19.53-11.846h36.25z" fill="#00b191"/>
     <path d="m1835 799.15 7.8345-20.434 12.691 13.005z" fill="#00b08f"/>
     <path d="m1799.6 781.92-3.8701 20.813-17.511-11.069z" fill="#00ae87"/>
     <path d="m1816.7 811.05-20.954-8.3158 18.303-9.7037z" fill="#00ae8e"/>
     <path d="m1800.3 831.92 3.2286 21.035-16.009-5.3742z" fill="#00ac92"/>
     <path d="m1824.3 862.83-20.717-9.8771 13.66-9.9281z" fill="#00ad9e"/>
     <path d="m1800.3 831.92-16.227-12.054 11.644-17.134z" fill="#00ac92"/>
     <path d="m1803.6 852.95-3.2286-21.035 16.889 11.107z" fill="#00ab99"/>
     <path d="m1728.6 981.1 14.477 11.549-26.31 11.142z" fill="#008cbd"/>
     <path d="m1788.4 1086.2-13.346-31.341 19.639-2.0854z" fill="#0098d6"/>
     <path d="m1656.4 986.2 21.119-1.897-7.0874 19.368z" fill="#0077b7"/>
     <path d="m1690.2 970.94-12.723 13.363-3.0751-20.394z" fill="#0081b6"/>
     <path d="m1660.6 840.48 25.782 5.6562-20.471 12.42z" fill="#009790"/>
     <path d="m1712.8 843.82-26.402 2.3064 1.3696-23.905z" fill="#009e92"/>
     <path d="m1665.8 927.58 20.618 14.66-24.193 5.3703z" fill="#0087a8"/>
     <path d="m1743 922.19 24.686 3.7214-14.39 14.951z" fill="#0099ac"/>
     <path d="m1666.8 908.14 11.428-15.761 17.802 27.026z" fill="#008ca2"/>
     <path d="m1703.4 863.03 25.071 2.625-18.809 22.923z" fill="#009997"/>
     <path d="m1696.1 919.4 6.5503 16.206-16.173 6.6318z" fill="#008ea7"/>
     <path d="m1702.6 935.61 2.0154 25.775-18.188-19.143z" fill="#008cad"/>
     <path d="m1702.6 935.61-6.5503-16.206 12.492-12.904z" fill="#008cad"/>
     <path d="m1704.6 961.38-2.0154-25.775 16.861 4.6086z" fill="#0087b5"/>
     <path d="m1728.6 981.1-16.504-4.3654 13.504-16.424z" fill="#008cbd"/>
     <path d="m1712.1 976.73-21.882-5.788 14.409-9.5602z" fill="#0087ba"/>
     <path d="m1725.6 960.31-6.1319-20.09 33.853 0.64819z" fill="#008eb7"/>
     <path d="m1743.1 992.65 21.371 14.407-23.152 4.0266z" fill="#0090c3"/>
     <path d="m1677.5 984.31 12.723-13.363 7.7971 15.434z" fill="#007bb8"/>
     <path d="m1686.4 942.24 3.7794 28.703-15.798-7.0304z" fill="#0087ae"/>
     <path d="m1725.6 960.31-20.978 1.0762 14.846-21.166z" fill="#008eb7"/>
     <path d="m1743.1 992.65-14.477-11.549 30.897 2.9841z" fill="#0090c3"/>
     <path d="m1725.6 960.31-13.504 16.424-7.4732-15.348z" fill="#008eb7"/>
     <path d="m1716.8 1003.8-4.6706-27.056 16.504 4.3654z" fill="#0083c1"/>
     <path d="m1726.3 908.91 16.678 13.286-23.557 18.024z" fill="#0097a6"/>
     <path d="m1728.6 981.1-2.9992-20.79 30.106 2.2666z" fill="#008cbd"/>
     <path d="m1780.3 887.21 4.4021 26.752-26.303-6.5717z" fill="#00a5a3"/>
     <path d="m1753.3 940.87 18.058 4.1635-15.673 17.545z" fill="#009ab4"/>
     <path d="m1678.3 892.38 31.405-3.8034-1.1107 17.926z" fill="#00909e"/>
     <path d="m1758.4 907.39-32.021 1.5217 9.6027-21.209z" fill="#009fa8"/>
     <path d="m1759.5 984.08 18.049-21.577 4.2884 28.738z" fill="#0097c3"/>
     <path d="m1721.4 1033-4.6578-29.236 24.53 7.2917z" fill="#0081c8"/>
     <path d="m1764.4 1007.1-21.371-14.407 16.42-8.5646z" fill="#0097ca"/>
     <path d="m1716.8 1003.8 26.31-11.142-1.7803 18.433z" fill="#0083c1"/>
     <path d="m1721.4 1033 19.872-21.945-2.7121 17.514z" fill="#0081c8"/>
     <path d="m1716.8 1003.8 4.6578 29.236-21.762 2.8635z" fill="#0083c1"/>
     <path d="m1721.4 1033 17.16-4.4309-8.3551 24.428z" fill="#0081c8"/>
     <path d="m1706.7 1056.5-23.064-5.8774 16.04-14.75z" fill="#007ac9"/>
     <path d="m1670.4 1003.7 28.831 0.1916-11.128 13.547z" fill="#0076bc"/>
     <path d="m1698 986.38 18.755 17.41-17.532 0.079-1.2234-17.489z" fill="#0080bb"/>
     <path d="m1766.9 1029.1-25.646-17.972 23.152-4.0266z" fill="#0095ce"/>
     <path d="m1730.2 1053 8.3551-24.428 10.852 14.012z" fill="#0083cc"/>
     <path d="m1775.1 1054.8-25.641-12.226 17.506-13.554z" fill="#0096d3"/>
     <path d="m1701.3 1078.2-3.4717 27.345-18.125-21.61z" fill="#0077ca"/>
     <path d="m1749.4 1042.6 8.5436 15.082-17.621 10.344z" fill="#008cce"/>
     <path d="m1740.4 1068-19.976 3.4206 9.8464-18.431z" fill="#0087cf"/>
     <path d="m1730.2 1053-9.8464 18.431-13.697-14.938z" fill="#0083cc"/>
     <path d="m1683.6 1050.6 4.4839-33.224 11.556 18.474z" fill="#0073c5"/>
     <path d="m1720.4 1071.5 12.79 14.655-17.249 10.513z" fill="#007fcd"/>
     <path d="m1673.9 1066.4 27.341 11.826-21.597 5.7351z" fill="#0070c6"/>
     <path d="m1699.2 1003.9 0.4274 32.021-11.556-18.474z" fill="#007dbf"/>
     <path d="m1721.4 1033-14.738 23.491-7.024-20.627z" fill="#0081c8"/>
     <path d="m1750 852.43-21.502 13.222 5.5796-24.583z" fill="#00a395"/>
     <g fill="#009ca0">
      <path d="m1736 887.7-7.481-22.047 24.456 6.113z"/>
      <path d="m1736 887.7 16.975-15.934 8.4702 16.933z"/>
      <path d="m1736 887.7-9.6027 21.209-16.688-20.334z"/>
     </g>
     <path d="m1708.6 906.5 1.1107-17.926 16.688 20.334z" fill="#0093a4"/>
     <path d="m1678.3 892.38 14.339-13.162 17.066 9.3585z" fill="#00909e"/>
     <path d="m1708.6 906.5 17.798 2.4079-6.879 31.31z" fill="#0093a4"/>
     <path d="m1678.3 892.38 30.294 14.122-12.492 12.904z" fill="#00909e"/>
     <path d="m1668.3 876.84 24.278 2.373-14.339 13.162z" fill="#00929a"/>
     <path d="m1703.4 863.03 6.2622 25.548-17.066-9.3585z" fill="#009997"/>
     <path d="m1703.4 863.03-20.218 0.82689 3.2508-17.722z" fill="#009997"/>
     <path d="m1668.3 876.84 14.864-12.99 9.414 15.363z" fill="#00929a"/>
     <path d="m1826.2 898.49-28.184-12.154 35.124-4.4211z" fill="#00acaa"/>
     <path d="m1761.4 888.7 18.874-1.4907-21.901 20.18z" fill="#00a1a2"/>
     <path d="m1787.6 847.58-1.8082 21.733-15.787-10.045z" fill="#00a996"/>
     <path d="m1798 886.33-12.241-17.02 18.705 0.50488z" fill="#00a8a4"/>
     <path d="m1826.2 898.49-12.012 28.686-5.8174-26.442z" fill="#00acaa"/>
     <path d="m1798 886.33-13.312 27.625-4.4021-26.752z" fill="#00a8a4"/>
     <path d="m1736 887.7 25.445 0.99829-3.0268 18.689z" fill="#009ca0"/>
     <path d="m1770 859.27-8.5608 29.428-8.4702-16.933z" fill="#00a698"/>
     <path d="m1833.1 881.91-35.124 4.4211 6.464-16.515z" fill="#00ada4"/>
     <path d="m1784.7 913.96 13.312-27.625 10.355 14.398z" fill="#00a4ad"/>
     <path d="m1824.3 862.83-19.83 6.9867-0.8871-16.864z" fill="#00ad9e"/>
     <path d="m1879 815.82 25.522-0.85887-12.207 16.896z" fill="#00b099"/>
     <path d="m1803.7 952.15 18.228 17.467-24.974 3.696z" fill="#00a6bc"/>
     <path d="m1781.8 991.24-4.2884-28.738 19.408 10.804z" fill="#009fc8"/>
     <path d="m1801.4 916.12-16.736-2.1589 23.666-13.227z" fill="#00a7af"/>
     <path d="m1771.4 945.03-3.6671-19.115 20.001 10.362z" fill="#009fb7"/>
     <path d="m1814.2 927.17 12.012-28.686 10.911 14.278z" fill="#00a9b4"/>
     <path d="m1798 886.33 28.184 12.154-17.829 2.2441z" fill="#00a8a4"/>
     <path d="m1846.1 836.28-21.848 26.55-7.0568-19.805z" fill="#00af98"/>
     <path d="m1833.1 881.91-28.66-12.094 19.83-6.9867z" fill="#00ada4"/>
     <path d="m1904.6 814.96-13.136-10.705 16.318-14.633z" fill="#00af9d"/>
     <path d="m1931.4 900.26-19.76-12.776 23.979-10.373z" fill="#00acab"/>
     <path d="m1837.1 912.77 26.17 6.134-16.926 13.321z" fill="#00acaf"/>
     <path d="m1814.2 927.17-10.457 24.973-15.986-15.869z" fill="#00a9b4"/>
     <path d="m1758.4 907.39 26.303 6.5717-16.96 11.957z" fill="#009fa8"/>
     <g fill="#00a3b5">
      <path d="m1787.7 936.28-20.001-10.362 16.96-11.957z"/>
      <path d="m1787.7 936.28-3.0407-22.319 16.736 2.1589z"/>
      <path d="m1787.7 936.28 15.986 15.869-26.154 10.359z"/>
     </g>
     <path d="m1797 973.31-19.408-10.804 26.154-10.359z" fill="#00a4c3"/>
     <path d="m1777.5 962.51-18.049 21.577-3.7901-21.507 21.839-0.0696z" fill="#009fbe"/>
     <path d="m1853.9 854.5 19.289 13.248-20.246 6.548z" fill="#00af9e"/>
     <path d="m1898.8 929.08 12.276-18.986 10.31 20.128z" fill="#00aeb2"/>
     <path d="m1808.3 900.73 5.8174 26.442-12.748-11.056z" fill="#00a9aa"/>
     <path d="m1787.7 936.28 13.695-20.16 12.748 11.056z" fill="#00a3b5"/>
     <path d="m1814.2 927.17 14.641 11.709-25.098 13.264z" fill="#00a9b4"/>
     <path d="m1738.6 1028.6 2.7121-17.514 25.646 17.972z" fill="#0089ca"/>
     <path d="m1728.6 981.1 27.107-18.523 3.7901 21.507z" fill="#008cbd"/>
     <path d="m1725.6 960.31 27.721-19.442 2.3849 21.708z" fill="#008eb7"/>
     <path d="m1767.7 925.92 3.6671 19.115-18.058-4.1635z" fill="#009fb0"/>
     <path d="m1787.7 936.28-10.168 26.228-6.1661-17.475z" fill="#00a3b5"/>
     <path d="m1850.2 895.39-17.104-13.481 19.869-7.6176z" fill="#00aeaa"/>
     <path d="m1863.2 918.9 8.5647-26.286 16.321 16.128z" fill="#00aeb1"/>
     <path d="m1803.7 952.15 25.098-13.264-6.8708 30.731z" fill="#00a6bc"/>
     <path d="m1797 973.31 8.1796 20.651-23.299-2.7172z" fill="#00a4c3"/>
     <path d="m1781.8 991.24 23.299 2.7172-13.722 16.411z" fill="#009fc8"/>
     <path d="m1759.5 984.08 22.337 7.1608-17.385 15.811z" fill="#0097c3"/>
     <path d="m1788.9 1031.6 2.4782-21.248 21.458 3.9999z" fill="#009dd1"/>
     <path d="m1847.9 1032.1 27.991-2.6301-26.882 20.636z" fill="#00a7d0"/>
     <path d="m1791.4 1010.4-26.962-3.3176 17.385-15.811z" fill="#00a1ce"/>
     <path d="m1764.4 1007.1 26.962 3.3176-24.468 18.681z" fill="#0097ca"/>
     <path d="m1812.9 1014.4-21.458-3.9999 13.722-16.411z" fill="#00a7d0"/>
     <path d="m1791.4 1010.4-2.4782 21.248-21.99-2.5668z" fill="#00a1ce"/>
     <path d="m1797 973.31 24.974-3.696-16.794 24.347z" fill="#00a4c3"/>
     <path d="m1830.5 1027.2-1.6953 20.267-19.782-8.3388z" fill="#00a7d0"/>
     <path d="m2122.5 862.32 8.6682-16.793 14.435 15.67z" fill="#008fb3"/>
     <path d="m1911.6 841.64 1.0889 22.924-19.641-11.872z" fill="#00aea2"/>
     <path d="m2130.8 805.43 2.7215-27.061 17.438 3.7807z" fill="#0091b4"/>
     <path d="m2092.2 806.03-14.804 18.688 2.9399-30.732z" fill="#0095b2"/>
     <path d="m2130.8 805.43 20.16-23.28 5.6688 17.683z" fill="#0091b4"/>
     <path d="m2103 779.27 30.438-0.89526-13.671 11.466z" fill="#0094b3"/>
     <path d="m2089.2 917.13 24.084-5.5554-3.2697 19.055z" fill="#008da7"/>
     <path d="m2131.2 845.53-22.588-4.8559 9.3721-21.118z" fill="#008fb3"/>
     <path d="m1979.8 873.33-6.9718-27.852 16.533-2.9782z" fill="#00a6aa"/>
     <path d="m2069.4 861.17-8.3685-19.125 23.98 5.266z" fill="#0096af"/>
     <path d="m2109.7 952.6-14.775 16.259-11.072-27.59z" fill="#00809d"/>
     <path d="m2083.8 941.27 11.072 27.59-18.427-8.622z" fill="#008aa1"/>
     <path d="m2083.8 941.27-21.985-17.696 27.311-6.4401z" fill="#008aa1"/>
     <path d="m2045.5 910.73 15.784-10.534 0.5324 23.373z" fill="#0098a9"/>
     <path d="m2057.6 967.82 18.881-7.5771 1.7692 20.221z" fill="#008f9d"/>
     <path d="m2079.1 1000.7-9.4536 17.376-18.708-23.905z" fill="#008392"/>
     <path d="m2076.5 960.24-14.496-14.327 21.851-4.6416z" fill="#008a9d"/>
     <path d="m2043.4 953.58 18.604-7.6666-4.3848 21.904z" fill="#0095a1"/>
     <path d="m1996.7 988.59 24.624 4.7751-27.068 15.622z" fill="#00a3a3"/>
     <path d="m2043.4 953.58-20.118-0.39111 10.555-25.311z" fill="#0095a1"/>
     <path d="m2078.3 980.46-1.7692-20.221 18.427 8.622z" fill="#008697"/>
     <path d="m2062 945.91 14.496 14.327-18.881 7.5771z" fill="#0090a1"/>
     <path d="m2098.1 999.06-19.817-18.597 16.658-11.599z" fill="#007b90"/>
     <path d="m2078.3 980.46 0.8464 20.281-28.162-6.5288z" fill="#008697"/>
     <path d="m2019.6 1033.6-25.166 6.6816 9.3046-15.689z" fill="#009d96"/>
     <path d="m1953.2 975.75 5.5185 19.335-21.423-4.3408z" fill="#00aaae"/>
     <path d="m2043.4 953.58 14.219 14.237-24.674 5.9787z" fill="#0095a1"/>
     <path d="m2050.9 994.21-18.009-20.417 24.674-5.9787z" fill="#009097"/>
     <path d="m2050.9 994.21 6.6656-26.395 20.65 12.644z" fill="#009097"/>
     <path d="m2035.7 1007.4 15.199-13.174-0.7946 27.212z" fill="#009697"/>
     <path d="m2035.7 1007.4 14.404 14.038-11.814 14.736z" fill="#009697"/>
     <path d="m2021.3 993.37 29.624 0.84374-15.199 13.174z" fill="#009b9d"/>
     <path d="m1955.8 1059.6-17.876 4.2126 11.798-21.543z" fill="#00adab"/>
     <path d="m1953.2 975.75-10.317-17.259 22.795 1.4917z" fill="#00aaae"/>
     <path d="m1842.8 760.54 19.53 11.846-19.49 6.3249-0.04-18.171z" fill="#00b18d"/>
     <path d="m1842.8 778.72 19.49-6.3249-6.7996 19.33z" fill="#00b08e"/>
     <path d="m1862.3 772.39 16.72-11.846 7.0262 27.639z" fill="#00b191"/>
     <path d="m1879 760.54 18.125 10.105-11.099 17.534z" fill="#00b095"/>
     <path d="m1886.1 788.18 11.099-17.534 10.58 18.976z" fill="#00b097"/>
     <path d="m1857 817.14 14.837-17.849 7.1653 16.534z" fill="#00b096"/>
     <path d="m1862.3 772.39 9.5544 26.897-16.354-7.5673z" fill="#00b191"/>
     <path d="m1879 760.54h36.25l-18.125 10.105z" fill="#00b095"/>
     <path d="m1907.8 789.62-10.58-18.976 18.125-10.105z" fill="#00af9b"/>
     <path d="m2042.2 769.11-6.1188 19.088-12.006-27.65z" fill="#009daf"/>
     <path d="m2077.4 824.72-16.374 17.329-9.5273-22.316z" fill="#0096b1"/>
     <path d="m1970.7 785.9-23.105 19.99-6.2277-23.375z" fill="#00a8a6"/>
     <path d="m1907.8 789.62 18.358 11.62-21.54 13.718z" fill="#00af9b"/>
     <path d="m1927.1 826.62-22.562-11.658 21.54-13.718z" fill="#00ada2"/>
     <path d="m1904.6 814.96 7.0459 26.677-19.253-9.7804z" fill="#00af9d"/>
     <path d="m1871.9 799.29 19.552 4.9704-12.387 11.564z" fill="#00b095"/>
     <path d="m1907.8 789.62-16.318 14.633-5.3604-16.075z" fill="#00af9b"/>
     <path d="m2064.2 799.06 16.124-5.0803-2.9399 30.732z" fill="#0099b1"/>
     <path d="m2007.3 881.56-11.47-11.754 5.4693-15.486z" fill="#00a1ab"/>
     <path d="m1873.2 867.75 20.468 7.4203-21.879 17.447z" fill="#00afa3"/>
     <path d="m1853 874.29 20.246-6.548-1.4106 24.867z" fill="#00aea3"/>
     <path d="m1947.6 805.89 19.447 10.343-18.298 11.654z" fill="#00aba3"/>
     <path d="m1892.4 831.86 19.253 9.7804-18.552 11.052z" fill="#00af9e"/>
     <path d="m1911.6 841.64-7.0459-26.677 22.562 11.658z" fill="#00aea2"/>
     <path d="m1870.1 843.04 22.262-11.177 0.7009 20.833z" fill="#00af9d"/>
     <path d="m1927.1 826.62 13.642 21.421-29.159-6.4018z" fill="#00ada2"/>
     <path d="m1912.7 864.56-1.0653 22.925-17.95-12.321z" fill="#00aea5"/>
     <path d="m1873.2 867.75-3.1205-24.711 22.962 9.6554z" fill="#00afa3"/>
     <path d="m1870.1 843.04-23.977-6.7543 10.921-19.145z" fill="#00af9d"/>
     <path d="m1940.8 848.04-11.246 13-17.913-19.402z" fill="#00aba5"/>
     <path d="m1929.5 861.04 28.659 2.9123-22.569 13.162z" fill="#00aca6"/>
     <path d="m1893.1 852.69 19.641 11.872-19.015 10.604z" fill="#00afa2"/>
     <path d="m1871.8 892.61-21.6 2.7795 2.7644-21.098z" fill="#00afaa"/>
     <path d="m1833.1 881.91-8.8302-19.081 28.699 11.463z" fill="#00ada4"/>
     <path d="m1853.9 854.5-29.656 8.3332 21.848-26.55z" fill="#00af9e"/>
     <path d="m1893.7 875.17 17.95 12.321-23.508 21.253z" fill="#00afa6"/>
     <path d="m1893.1 852.69 0.6263 22.476-20.468-7.4203z" fill="#00afa2"/>
     <path d="m1873.2 867.75-19.289-13.248 16.169-11.462z" fill="#00afa3"/>
     <path d="m1824.3 862.83 29.656-8.3332-0.9571 19.796z" fill="#00ad9e"/>
     <path d="m1767.7 925.92-24.686-3.7214 15.343-14.808z" fill="#009fb0"/>
     <path d="m1719.5 940.22 23.557-18.024 10.296 18.673z" fill="#0090b0"/>
     <path d="m1766.9 1029.1 21.99 2.5668-13.855 23.214z" fill="#0095ce"/>
     <path d="m1738.6 1028.6 28.358 0.4578-17.506 13.554z" fill="#0089ca"/>
     <path d="m2131.2 845.53-8.6682 16.793-13.92-21.649z" fill="#008fb3"/>
     <path d="m2118 819.56-21.062 5.4409 12.7-20.875z" fill="#0091b3"/>
     <path d="m2085 847.31 23.638-6.6364-4.9557 22.566z" fill="#0094b1"/>
     <path d="m2118 819.56-9.3721 21.118-11.69-15.677z" fill="#0091b3"/>
     <path d="m2085.7 875.45-16.347-14.277 15.612-13.859z" fill="#0092af"/>
     <path d="m1907.8 789.62 25.67-24.122 7.9912 17.007z" fill="#00af9b"/>
     <path d="m2069.4 861.17 16.347 14.277-20.825 6.1135z" fill="#0096af"/>
     <path d="m2077.4 824.72 7.6064 22.595-23.98-5.266z" fill="#0096b1"/>
     <path d="m2089.2 917.13-9.096-19.87 21.814-1.3235z" fill="#008da7"/>
     <path d="m2033.7 860.52 17.696 7.3976-16.159 13.79z" fill="#009cad"/>
     <path d="m2051.5 819.73 12.717-20.665 13.184 25.651z" fill="#009aaf"/>
     <path d="m2096.9 825-19.554-0.28174 14.804-18.688z" fill="#0093b3"/>
     <path d="m2085.7 875.45-0.7354-28.136 18.682 15.93z" fill="#0092af"/>
     <path d="m2051.4 867.91 17.955-6.7438-4.4778 20.39z" fill="#0099ae"/>
     <path d="m2113.4 880.16-27.665-4.7146 17.947-12.206z" fill="#008eb0"/>
     <path d="m2080.1 897.26 5.6273-21.817 16.186 20.493z" fill="#0091ab"/>
     <path d="m2061.9 923.57 18.215-26.31 9.096 19.87z" fill="#0092a6"/>
     <path d="m2085.7 875.45-5.6273 21.817-15.198-15.703z" fill="#0092af"/>
     <path d="m2021.5 829.91-12.214-15.329 25.081 4.0183z" fill="#009fad"/>
     <path d="m1989.4 842.5 4.1057-16.29 7.841 28.1z" fill="#00a5aa"/>
     <path d="m2096.9 825-4.7501-18.97 17.45-1.9045z" fill="#0093b3"/>
     <path d="m2085 847.31 11.948-22.314 11.69 15.677z" fill="#0094b1"/>
     <path d="m1970.7 785.9 19.412-5.3539-4.5236 26.553z" fill="#00a8a6"/>
     <path d="m2096.6 760.54-12.85 14.424-23.4-14.424z" fill="#0095b3"/>
     <path d="m2080.3 793.98 3.4043-19.015 19.349 4.3005z" fill="#0097b2"/>
     <path d="m2130.8 805.43-21.155-1.312 10.205-14.283z" fill="#0091b4"/>
     <path d="m2130.8 805.43-10.95-15.595 13.671-11.466z" fill="#0091b4"/>
     <path d="m2146.9 815.65-28.88 3.9091 12.793-14.122z" fill="#0090b4"/>
     <path d="m2019.2 848.56 20.69-8.2536-6.2089 20.212z" fill="#009fac"/>
     <path d="m2024 802.78 22.636-0.23632-12.309 16.064z" fill="#009fad"/>
     <path d="m2001.3 854.32-7.841-28.1 25.718 22.342z" fill="#00a2ab"/>
     <path d="m2062 945.91-28.166-18.036 28.032-4.3017z" fill="#0090a1"/>
     <path d="m2051.5 819.73-11.546 20.574-5.5493-21.7z" fill="#009aaf"/>
     <path d="m1977.2 829.43-28.399-1.55 18.298-11.654z" fill="#00a7a8"/>
     <path d="m2039.9 840.3 11.546-20.574 9.5273 22.316z" fill="#009cae"/>
     <path d="m2064.2 799.06-17.503 3.4746 18.26-23.005z" fill="#0099b1"/>
     <path d="m1927.1 826.62 20.509-20.735 1.1487 21.996z" fill="#00ada2"/>
     <path d="m1990.2 780.54 20.484-4.0002-7.5692 19.45z" fill="#00a5a8"/>
     <path d="m2009.3 814.59-15.778 11.63-7.8634-19.12z" fill="#00a2ab"/>
     <path d="m1947.6 805.89-20.509 20.735-1.0229-25.375z" fill="#00aba3"/>
     <path d="m1993.5 826.21-4.1057 16.29-12.204-13.072z" fill="#00a4aa"/>
     <path d="m1907.8 789.62 7.5455-29.081 18.125 4.9589z" fill="#00af9b"/>
     <path d="m1926.1 801.24 15.304-18.735 6.2277 23.375z" fill="#00ad9f"/>
     <path d="m2001.3 854.32 17.877-5.7578-11.876 32.998z" fill="#00a2ab"/>
     <path d="m1940.8 848.04 8.0153-20.159 24.07 17.601z" fill="#00aba5"/>
     <path d="m1970.7 785.9-29.333-3.3857 28.259-15.746z" fill="#00a8a6"/>
     <path d="m1947.6 805.89 23.105-19.99-3.6582 30.332z" fill="#00aba3"/>
     <path d="m2132.8 760.54 0.687 17.83-30.438 0.89526z" fill="#0092b4"/>
     <path d="m2080.3 793.98 22.753-14.715-10.889 26.758z" fill="#0097b2"/>
     <path d="m2051.4 867.91 9.5863-25.869 8.3685 19.125z" fill="#0099ae"/>
     <path d="m2064.9 881.56-3.5496 18.641-26.087-18.498z" fill="#0095ad"/>
     <path d="m2045.5 910.73 16.317 12.839-28.032 4.3017z" fill="#0098a9"/>
     <path d="m2051.4 867.91-17.696-7.3976 6.2089-20.212z" fill="#0099ae"/>
     <path d="m1983 898.72 1.2602 25.552-14.242-12.105z" fill="#00a5aa"/>
     <path d="m2035.2 881.7-27.893-0.14844 26.357-21.039z" fill="#009bac"/>
     <path d="m2064.9 881.56-29.636 0.14355 16.159-13.79z" fill="#0095ad"/>
     <path d="m2035.2 881.7-8.1938 19.599-19.7-19.748z" fill="#009bac"/>
     <path d="m2033.8 927.88-27.349 7.2048-2.0621-24.61z" fill="#0099a6"/>
     <path d="m2033.8 927.88-6.7804-26.573 18.496 9.4318z" fill="#0099a6"/>
     <path d="m2006.5 935.08 27.349-7.2048-10.555 25.311z" fill="#00a0a7"/>
     <path d="m1979.8 873.33-21.643-9.381 14.672-18.471z" fill="#00a6aa"/>
     <path d="m1993.5 826.21-16.31 3.2172 8.4464-22.337z" fill="#00a4aa"/>
     <path d="m1993.5 826.21 27.992 3.6997-2.2742 18.643z" fill="#00a4aa"/>
     <path d="m1941.4 782.51-15.304 18.735-18.358-11.62z" fill="#00aca1"/>
     <path d="m1970.7 785.9-1.0742-19.132 20.486 13.778z" fill="#00a8a6"/>
     <path d="m1941.4 782.51 10.134-21.966 18.125 6.2196z" fill="#00aca1"/>
     <path d="m1915.3 760.54h36.25l-18.125 4.9589z" fill="#00ae9c"/>
     <path d="m1951.6 760.54-10.134 21.966-7.9912-17.007z" fill="#00aaa2"/>
     <path d="m2064.9 779.53 15.367 14.451-16.124 5.0803z" fill="#0099b1"/>
     <path d="m2064.9 779.53 18.771-4.5649-3.4043 19.015z" fill="#0099b1"/>
     <path d="m2010.6 776.54 25.41 11.652-12.023 14.581z" fill="#00a2ab"/>
     <path d="m2060.3 760.54 23.4 14.424-18.771 4.5649z" fill="#009ab0"/>
     <path d="m2010.6 776.54-22.846-15.998h36.25z" fill="#00a2ab"/>
     <path d="m2036.1 788.19 6.1188-19.088 22.754 10.428z" fill="#009eae"/>
     <path d="m2103 779.27-19.349-4.3005 12.85-14.424z" fill="#0094b3"/>
     <path d="m2132.8 760.54-29.751 18.725-6.499-18.725z" fill="#0092b4"/>
     <path d="m2109.6 804.12-6.5614-24.853 16.767 10.571z" fill="#0093b3"/>
     <path d="m2039.9 840.3-20.69 8.2536 2.2742-18.643z" fill="#009cae"/>
     <path d="m2007.3 881.56 11.876-32.998 14.481 11.959z" fill="#00a1ab"/>
     <path d="m2035.2 881.7 10.302 29.031-18.496-9.4318z" fill="#009bac"/>
     <path d="m2080.1 897.26-18.748 2.9377 3.5496-18.641z" fill="#0091ab"/>
     <path d="m2061.9 923.57-0.5324-23.373 18.748-2.9377z" fill="#0092a6"/>
     <path d="m2035.2 881.7 26.087 18.498-15.784 10.534z" fill="#009bac"/>
     <path d="m2004.4 910.47-21.403-11.751 24.334-17.164z" fill="#00a1a9"/>
     <path d="m1940.8 848.04 32.085-2.5583-14.672 18.471z" fill="#00aba5"/>
     <path d="m1986.6 947.76-25.997-10.038 23.699-13.453z" fill="#00a4a8"/>
     <path d="m1979.8 873.33-17.089 9.7699-4.5539-19.151z" fill="#00a6aa"/>
     <path d="m1948.8 827.88 28.399 1.55-4.3293 16.051z" fill="#00aba5"/>
     <path d="m1985.6 807.1-8.4464 22.337-10.1-13.204z" fill="#00a6a8"/>
     <path d="m1970.7 785.9 14.889 21.199-18.547 9.1332z" fill="#00a8a6"/>
     <path d="m2009.3 814.59-23.641-7.4899 17.439-11.103z" fill="#00a2ab"/>
     <path d="m2010.6 776.54 13.388 26.233-20.957-6.7831z" fill="#00a2ab"/>
     <path d="m2021.5 829.91-27.992-3.6997 15.778-11.63z" fill="#009fad"/>
     <path d="m1989.4 842.5 11.947 11.811-5.4693 15.486z" fill="#00a5aa"/>
     <path d="m1977.2 829.43 12.204 13.072-16.533 2.9782z" fill="#00a7a8"/>
     <path d="m1951.6 760.54h36.25l-18.125 6.2196z" fill="#00aaa2"/>
     <path d="m1990.2 780.54-20.486-13.778 18.125-6.2196z" fill="#00a5a8"/>
     <path d="m2051.5 819.73-4.7856-17.19 17.503-3.4746z" fill="#009aaf"/>
     <path d="m1985.6 807.1 4.5236-26.553 12.915 15.45z" fill="#00a6a8"/>
     <path d="m1987.8 760.54 22.846 15.998-20.484 4.0002z" fill="#00a5a8"/>
     <path d="m2024 802.78 10.326 15.828-25.081-4.0183z" fill="#009fad"/>
     <path d="m2036.1 788.19-25.41-11.652 13.404-15.998z" fill="#009eae"/>
     <path d="m2034.4 818.6 12.309-16.064 4.7856 17.19z" fill="#009dae"/>
     <path d="m2064.9 779.53-18.26 23.005-10.613-14.345z" fill="#0099b1"/>
     <path d="m2003.1 795.99 20.957 6.7831-14.755 11.81z" fill="#00a3aa"/>
     <path d="m2046.7 802.54-22.636 0.23632 12.023-14.581z" fill="#009caf"/>
     <path d="m1983 898.72-28.093 2.4463 7.8285-18.061z" fill="#00a5aa"/>
     <path d="m1935.6 877.12-22.914-12.552 16.824-3.5222z" fill="#00aca8"/>
     <path d="m1984.3 924.27-23.699 13.453 9.457-25.558z" fill="#00a5aa"/>
     <path d="m1912.7 864.56 22.914 12.552-23.979 10.373z" fill="#00aea5"/>
     <path d="m1962.7 883.1-27.123-5.989 22.569-13.162z" fill="#00a8aa"/>
     <path d="m1931.4 900.26 4.2191-23.149 19.295 24.05z" fill="#00acab"/>
     <path d="m1962.7 883.1 17.089-9.7699 3.1753 25.385z" fill="#00a8aa"/>
     <path d="m1935.6 877.12 27.123 5.989-7.8285 18.061z" fill="#00aca8"/>
     <path d="m1995.9 869.8-12.864 28.918-3.1753-25.385z" fill="#00a3aa"/>
     <path d="m2004.4 910.47 2.931-28.915 19.7 19.748z" fill="#00a1a9"/>
     <path d="m1911.6 841.64 17.913 19.402-16.824 3.5222z" fill="#00aea2"/>
     <path d="m1958.2 863.95-28.659-2.9123 11.246-13z" fill="#00a9a8"/>
     <path d="m1960.6 937.72-18.22-15.899 27.677-9.6591z" fill="#00a9ac"/>
     <path d="m1931.4 900.26-20.363 9.8248 0.6025-22.601z" fill="#00acab"/>
     <path d="m2023.3 953.19 9.6619 20.607-23.686-1.4634z" fill="#009ba3"/>
     <path d="m1954.9 901.17 28.093-2.4463-12.982 13.447z" fill="#00a9ab"/>
     <path d="m1904.6 983.6 4.144-28.02 15.49 16.607z" fill="#00adbb"/>
     <path d="m1954.9 901.17 15.111 11.001-27.677 9.6591z" fill="#00a9ab"/>
     <path d="m1984.3 924.27 22.205 10.809-19.907 12.682z" fill="#00a5aa"/>
     <path d="m1942.4 921.83-10.948-21.561 23.514 0.90112z" fill="#00abad"/>
     <path d="m2033.8 927.88-29.411-17.405 22.63-9.1676z" fill="#0099a6"/>
     <path d="m1984.3 924.27-1.2602-25.552 21.403 11.751z" fill="#00a5aa"/>
     <path d="m1942.9 958.49-5.3913-18.252 23.04-2.5127z" fill="#00abb0"/>
     <path d="m1908.7 955.58-4.144 28.02-9.994-15.794z" fill="#00adb6"/>
     <path d="m1985.5 971.34 18.852-17.279 4.8577 18.266z" fill="#00a5a7"/>
     <path d="m1984.3 924.27 20.143-13.8 2.0621 24.61z" fill="#00a5aa"/>
     <path d="m2003.8 1024.6 17.554-31.184 14.425 14.018z" fill="#00a29c"/>
     <path d="m1942.9 958.49 17.648-20.765 5.1469 22.256z" fill="#00abb0"/>
     <path d="m2004.4 954.06 2.0872-18.984 16.794 18.107z" fill="#00a0a5"/>
     <path d="m1986.6 947.76-1.0325 23.581-19.818-11.362z" fill="#00a4a8"/>
     <path d="m2021.3 993.37-12.071-21.036 23.686 1.4634z" fill="#009b9d"/>
     <path d="m2004.4 954.06-18.852 17.279 1.0325-23.581z" fill="#00a0a5"/>
     <path d="m2006.5 935.08-2.0872 18.984-17.82-6.3022z" fill="#00a0a7"/>
     <path d="m2023.3 953.19-14.024 19.144-4.8577-18.266z" fill="#009ba3"/>
     <path d="m1983 898.72 12.864-28.918 11.47 11.754z" fill="#00a5aa"/>
     <path d="m1989.4 842.5 6.4774 27.297-16.039 3.5334z" fill="#00a5aa"/>
     <path d="m2024 760.54h36.25l-18.125 8.5612z" fill="#00a0ad"/>
     <path d="m2064.9 779.53-22.754-10.428 18.125-8.5612z" fill="#0099b1"/>
     <path d="m1986.6 947.76-20.85 12.218-5.1469-22.256z" fill="#00a4a8"/>
     <path d="m1953.2 975.75 12.478-15.767 4.667 20.876z" fill="#00aaae"/>
     <path d="m1985.5 971.34 11.157 17.249-18.124 8.1735z" fill="#00a5a7"/>
     <path d="m1970.7 1029.6-21.586-11.821 9.6301-22.649z" fill="#00aaa6"/>
     <path d="m1970.4 980.86-4.667-20.876 19.818 11.362z" fill="#00a8aa"/>
     <path d="m1958.8 995.08-9.6301 22.649-11.793-26.99z" fill="#00aaac"/>
     <path d="m1937.3 990.74-11.369 18.668-21.364-25.807z" fill="#00acb3"/>
     <path d="m1953.2 975.75-15.904 14.994-13.099-18.551z" fill="#00aaae"/>
     <path d="m1904 1003 21.926 6.3676-15.94 12.136z" fill="#00adbd"/>
     <path d="m1812.9 1014.4 11.05-25.418 7.5834 18.368z" fill="#00a7d0"/>
     <path d="m1932.8 1026.8-22.756-5.2851 15.94-12.136z" fill="#00adb5"/>
     <path d="m1888.6 949.19-12.598 16.987-7.5823-23.312z" fill="#00aeb7"/>
     <path d="m1931.4 900.26-10.052 29.953-10.31-20.128z" fill="#00acab"/>
     <path d="m1837.1 912.77 13.134-17.372 13.036 23.506z" fill="#00acaf"/>
     <path d="m1921.3 930.22 10.052-29.953 10.948 21.561z" fill="#00adb0"/>
     <path d="m1888.1 908.74 22.905 1.3481-12.276 18.986z" fill="#00aeae"/>
     <path d="m1942.4 921.83-4.8198 18.411-16.181-10.02z" fill="#00abad"/>
     <path d="m1937.3 990.74-32.733-7.1383 19.634-11.413z" fill="#00acb3"/>
     <path d="m1908.7 955.58-14.138 12.226-6.0215-18.618z" fill="#00adb6"/>
     <path d="m1888.1 908.74-16.321-16.128 21.879-17.447z" fill="#00aeae"/>
     <path d="m1960.6 937.72-23.04 2.5127 4.8198-18.411z" fill="#00a9ac"/>
     <path d="m1908.7 955.58 28.785-15.346 5.3913 18.252z" fill="#00adb6"/>
     <path d="m1898.8 929.08 22.586 1.1418-12.604 25.366z" fill="#00aeb2"/>
     <path d="m1908.7 955.58 12.604-25.366 16.181 10.02z" fill="#00adb6"/>
     <path d="m1879.9 927.85 8.2362-19.114 10.629 20.334z" fill="#00aeb3"/>
     <path d="m1846.3 932.22 22.083 10.644-9.6188 16.018z" fill="#00adb6"/>
     <path d="m1837.1 912.77 9.2432 19.455-17.524 6.6618z" fill="#00acaf"/>
     <path d="m1831.5 1007.3-0.9881 19.898-17.646-12.848z" fill="#00a9cd"/>
     <path d="m1840.9 972.23 17.907-13.347 2.9495 22.596z" fill="#00acc3"/>
     <path d="m1904.6 983.6-0.5619 19.439-24.659-10.342z" fill="#00adbb"/>
     <path d="m1841 953.1-0.1409 19.132-18.953-2.6159z" fill="#00acbd"/>
     <path d="m1821.9 969.61 18.953 2.6159-16.96 16.724z" fill="#00a9c3"/>
     <path d="m1823.9 988.95-11.05 25.418-7.7367-20.411z" fill="#00a9c9"/>
     <path d="m1879.4 992.7-4.6205 16.819-13.024-28.041z" fill="#00acc2"/>
     <path d="m1868.4 942.87-22.083-10.644 16.926-13.321z" fill="#00aeb8"/>
     <path d="m1828.8 938.88 17.524-6.6618-5.3015 20.877z" fill="#00abb8"/>
     <path d="m1879.9 927.85-11.492 15.01-5.1567-23.966z" fill="#00aeb3"/>
     <path d="m1858.8 958.88 9.6188-16.018 7.5823 23.312z" fill="#00adbd"/>
     <path d="m1828.8 938.88 12.223 14.215-19.094 16.516z" fill="#00abb8"/>
     <path d="m1837.1 912.77-8.281 26.117-14.641-11.709z" fill="#00acaf"/>
     <path d="m1840.9 972.23 0.1409-19.132 17.766 5.7848z" fill="#00acc3"/>
     <path d="m1823.9 988.95 16.96-16.724 2.3511 18.987z" fill="#00a9c9"/>
     <path d="m1888.1 908.74-8.2362 19.114-16.649-8.9555z" fill="#00aeae"/>
     <path d="m1888.6 949.19-8.6879-21.336 18.866 1.2204z" fill="#00aeb7"/>
     <path d="m1879.9 927.85 8.6879 21.336-20.18-6.3258z" fill="#00aeb3"/>
     <path d="m1898.8 929.08 9.9819 26.508-20.16-6.392z" fill="#00aeb2"/>
     <path d="m1858.8 958.88 17.201 7.2948-14.252 15.302z" fill="#00adbd"/>
     <path d="m1846.3 932.22 12.464 26.662-17.766-5.7848z" fill="#00adb6"/>
     <path d="m1879.4 992.7 15.226-24.892 9.994 15.794z" fill="#00acc2"/>
     <path d="m1888.6 949.19 6.0215 18.618-18.62-1.6313z" fill="#00aeb7"/>
     <path d="m1908.7 955.58 34.176 2.906-18.686 13.702z" fill="#00adb6"/>
     <path d="m1953.2 975.75-29.004-3.5571 18.686-13.702z" fill="#00aaae"/>
     <path d="m1831.5 1007.3-7.5834-18.368 19.311 2.2629z" fill="#00a9cd"/>
     <path d="m1805.1 993.96 16.794-24.347 1.993 19.34z" fill="#00a6ca"/>
     <path d="m2113.4 880.16 9.1575-17.838 10.256 15.873z" fill="#008eb0"/>
     <path d="m2108.6 840.67 13.92 21.649-18.876 0.91772z" fill="#0091b3"/>
     <path d="m2113.3 911.58 0.1121-31.417 19.414-1.9648z" fill="#0089a9"/>
     <path d="m2085.7 875.45 27.665 4.7146-11.479 15.779z" fill="#0092af"/>
     <path d="m1955.8 1059.6-6.0782-17.331 27.352 4.8798z" fill="#00adab"/>
     <path d="m1970.7 1029.6 23.534-20.564 9.5141 15.562z" fill="#00aaa6"/>
     <path d="m1978.6 996.77-7.8539 32.787-11.956-34.47z" fill="#00a7a6"/>
     <path d="m2009.2 972.33-12.553 16.261-11.157-17.249z" fill="#009fa2"/>
     <path d="m1970.7 1029.6 33.048-5.0012-9.3046 15.689z" fill="#00aaa6"/>
     <path d="m2021.3 993.37-17.554 31.184-9.5141-15.562z" fill="#009b9d"/>
     <path d="m2021.3 993.37-24.624-4.7751 12.553-16.261z" fill="#009b9d"/>
     <path d="m1978.6 996.77 18.124-8.1735-2.444 20.397z" fill="#00a7a6"/>
     <path d="m1970.7 1029.6 7.8539-32.787 15.68 12.224z" fill="#00aaa6"/>
     <path d="m1958.8 995.08-5.5185-19.335 17.145 5.1093z" fill="#00aaac"/>
     <path d="m1985.5 971.34-6.9669 25.423-8.1837-15.909z" fill="#00a5a7"/>
     <path d="m1958.8 995.08 11.627-14.226 8.1837 15.909z" fill="#00aaac"/>
     <path d="m2034.4 818.6 5.5493 21.7-18.416-10.389z" fill="#009dae"/>
     <path d="m2051.4 867.91-11.487-27.61 21.073 1.7412z" fill="#0099ae"/>
     <path d="m1949.7 1042.3-0.5825-24.556 21.586 11.821z" fill="#00adae"/>
     <path d="m1937.3 990.74 11.793 26.99-23.162-8.3214z" fill="#00acb3"/>
     <path d="m1977.1 1047.2 29.079 16.342-32.95 1.9768z" fill="#00aaa3"/>
     <path d="m1918.4 1059.4 0.5653-19.973 18.927 24.367z" fill="#00adbb"/>
     <path d="m1977.1 1047.2-6.3482-17.614 23.743 10.688z" fill="#00aaa3"/>
     <path d="m1949.7 1042.3-11.798 21.543-18.927-24.367z" fill="#00adae"/>
     <path d="m2006.1 1063.5 14.034 18.851-32.275 0.4522z" fill="#00a496"/>
     <path d="m1973.2 1065.5-21.469 16.913 4.0659-22.782z" fill="#00aba3"/>
     <path d="m1969.7 1094.1-17.958-11.697 21.469-16.913z" fill="#00aca4"/>
     <path d="m2006.1 1063.5-18.241 19.303-14.708-17.326z" fill="#00a496"/>
     <path d="m1951.7 1082.4-18.297 16.861-10.06-16.332z" fill="#00adac"/>
     <path d="m1859.9 1018.7-12.057 13.42-16.372-24.805z" fill="#00a9cc"/>
     <path d="m1977.1 1047.2-27.352-4.8798 21.004-12.734z" fill="#00aaa3"/>
     <path d="m1987.8 1105.5-18.12-11.444 18.22-11.284-0.1 22.728z" fill="#00a99c"/>
     <path d="m2006.1 1063.5-29.079-16.342 17.395-6.9267z" fill="#00a496"/>
     <path d="m1955.8 1059.6 21.274-12.451-3.8706 18.319z" fill="#00adab"/>
     <path d="m1949.7 1042.3-16.928-15.457 16.345-9.0993z" fill="#00adae"/>
     <path d="m1910 1021.5 22.756 5.2851-13.797 12.633z" fill="#00adbd"/>
     <path d="m1813 1060.2 1.84 23.364-26.401 2.5603z" fill="#00a1d5"/>
     <path d="m1859.9 1018.7 14.827-9.1874 1.1065 19.977z" fill="#00a9cc"/>
     <path d="m1951.7 1082.4-13.81-18.569 17.876-4.2126z" fill="#00adac"/>
     <path d="m1894.6 967.81-15.226 24.892-3.3931-26.523z" fill="#00aeba"/>
     <path d="m1843.2 991.22 16.702 27.491-28.43-11.385z" fill="#00abc8"/>
     <path d="m1896.9 1039.3-6.3953-22.291 19.514 4.5322z" fill="#00acc3"/>
     <path d="m1923.4 1082.9-18.737 6.061-9.4038-17.303z" fill="#00adb9"/>
     <path d="m1923.4 1082.9-4.9451-23.492 19.492 4.3942z" fill="#00adb9"/>
     <path d="m1896.9 1039.3 13.119-17.758 8.9593 17.918z" fill="#00acc3"/>
     <path d="m1904 1003 5.986 18.503-19.514-4.5322z" fill="#00adbd"/>
     <path d="m1904 1003-13.528 13.971-11.13-24.313z" fill="#00adbd"/>
     <path d="m1926 1009.4-21.926-6.3676 0.5619-19.439z" fill="#00adb7"/>
     <path d="m1890.5 1017-15.751-7.4936 4.6205-16.819z" fill="#00acc3"/>
     <path d="m1874.8 1009.5-31.529-18.303 18.505-9.7374z" fill="#00abc7"/>
     <path d="m1875.9 1029.5-1.1065-19.977 15.751 7.4936z" fill="#00aac9"/>
     <path d="m1843.2 991.22 31.529 18.303-14.827 9.1874z" fill="#00abc8"/>
     <path d="m1840.9 972.23 20.856 9.2496-18.505 9.7374z" fill="#00acc3"/>
     <path d="m1876 966.18 3.3931 26.523-17.645-11.222z" fill="#00adbd"/>
     <path d="m1904.6 1089 18.737-6.061-8.0648 22.612z" fill="#00acc1"/>
     <path d="m1875.9 1029.5 21.04 9.8072-18.526 12.272z" fill="#00aac9"/>
     <path d="m1901.7 1055.8 17.326-16.322-0.5653 19.973z" fill="#00acc2"/>
     <path d="m1883.7 1087 20.943 2.0254-25.578 16.551z" fill="#00aac9"/>
     <path d="m1878.4 1051.6 18.526-12.272 4.7523 16.482z" fill="#00aaca"/>
     <path d="m1973.2 1065.5 14.708 17.326-18.22 11.284z" fill="#00aba3"/>
     <path d="m1896.9 1039.3-21.04-9.8072 14.644-12.484z" fill="#00acc3"/>
     <path d="m1828.8 1047.5 19.056-15.359 1.1087 18.006z" fill="#00a4d3"/>
     <path d="m1951.7 1082.4-28.357 0.529 14.547-19.098z" fill="#00adac"/>
     <path d="m1847.9 1032.1-19.056 15.359 1.6953-20.267z" fill="#00a7d0"/>
     <path d="m1883.7 1087-17.275-8.253 12.675-10.616z" fill="#00aac9"/>
     <path d="m1896.9 1039.3 22.078 0.1597-17.326 16.322z" fill="#00acc3"/>
     <path d="m1918.4 1059.4 4.9451 23.492-28.141-11.242z" fill="#00adbb"/>
     <path d="m1866.4 1078.7 17.275 8.253-22.76 10.723z" fill="#00a8ce"/>
     <path d="m1901.7 1055.8-22.574 12.309-0.7045-16.519z" fill="#00acc2"/>
     <path d="m1809 1039.1 19.782 8.3388-15.834 12.763z" fill="#00a2d3"/>
     <path d="m1987.8 1105.5h-36.25l18.13-11.444z" fill="#00a99c"/>
     <path d="m1951.6 1105.5 0.1721-23.141 17.958 11.697z" fill="#00aeac"/>
     <path d="m1951.6 1105.5h-36.25l18.125-6.2795z" fill="#00aeac"/>
     <path d="m1915.3 1105.5 8.0648-22.612 10.06 16.332z" fill="#00adbd"/>
     <path d="m1918.4 1059.4-23.196 12.25 6.4353-15.901z" fill="#00adbb"/>
     <path d="m1901.7 1055.8-6.4353 15.901-16.139-3.5917z" fill="#00acc2"/>
     <path d="m1866.4 1078.7-5.4844 18.976-23.652-20.812z" fill="#00a8ce"/>
     <path d="m1915.3 1105.5h-36.25l25.578-16.551z" fill="#00adbd"/>
     <path d="m1879.1 1068.1-26.601-0.4942 25.896-16.024z" fill="#00aaca"/>
     <path d="m1883.7 1087-4.5998-18.869 16.139 3.5917z" fill="#00aac9"/>
     <path d="m1879.1 1068.1-12.675 10.616-13.926-11.11z" fill="#00aaca"/>
     <path d="m1831.5 1007.3 16.372 24.805-17.361-4.9072z" fill="#00a9cd"/>
     <path d="m1875.9 1029.5-27.991 2.6301 12.057-13.42z" fill="#00aac9"/>
     <path d="m1852.5 1067.6-15.21 9.2739 11.712-26.741z" fill="#00a6d1"/>
     <path d="m1837.3 1076.9-22.447 6.7386-1.84-23.364z" fill="#00a4d4"/>
     <path d="m1904.6 1089-20.943-2.0254 11.539-15.277z" fill="#00acc1"/>
     <path d="m1860.9 1097.7 22.76-10.723-4.6346 18.576z" fill="#00a7cf"/>
     <path d="m1879 1105.5h-36.25l18.125-7.8529z" fill="#00aacb"/>
     <path d="m1837.3 1076.9 23.652 20.812-18.125 7.8529z" fill="#00a4d4"/>
     <path d="m1837.3 1076.9-8.4528-29.388 20.165 2.647z" fill="#00a4d4"/>
     <path d="m1813 1060.2-18.269-7.5021 14.321-13.6z" fill="#00a1d5"/>
     <path d="m1788.9 1031.6 23.937-17.248-3.8319 24.776z" fill="#009dd1"/>
     <path d="m1830.5 1027.2-21.478 11.928 3.8319-24.776z" fill="#00a7d0"/>
     <path d="m1788.4 1086.2 26.401-2.5603-8.2764 21.927z" fill="#0098d6"/>
     <path d="m1828.8 1047.5 8.4528 29.388-24.287-16.626z" fill="#00a4d3"/>
     <path d="m1852.5 1067.6-3.4986-17.468 29.395 1.4431z" fill="#00a6d1"/>
     <path d="m1866.4 1078.7-29.136-1.8364 15.21-9.2739z" fill="#00a8ce"/>
     <path d="m1824.7 1099.9 12.598-22.981 5.5266 28.665z" fill="#00a1d5"/>
     <path d="m1824.7 1099.9-9.8486-16.243 22.447-6.7386z" fill="#00a1d5"/>
     <path d="m1788.4 1105.5h-18.125l0.023-18.143 18.102 18.143z" fill="#0097d6"/>
     <path d="m1842.8 1105.5h-36.25l18.125-5.684z" fill="#00a4d3"/>
     <path d="m1806.6 1105.5 8.2764-21.927 9.8486 16.243z" fill="#009dd6"/>
     <path d="m1788.4 1086.2v19.366l-18.102-18.143z" fill="#0098d6"/>
     <path d="m1758 1057.7 17.098-2.856-18.003 20.166z" fill="#008fd1"/>
     <path d="m1733.2 1086.1-12.79-14.655 19.976-3.4206z" fill="#0083cf"/>
     <path d="m1788.4 1086.2 18.125 19.366h-18.125z" fill="#0098d6"/>
     <path d="m1757.1 1075 13.247 12.398-18.861 7.6232z" fill="#008dd2"/>
     <path d="m1788.9 1031.6 20.105 7.5287-14.321 13.6z" fill="#009dd1"/>
     <path d="m1770.3 1087.4 4.7563-32.564 13.346 31.341z" fill="#0091d4"/>
     <path d="m1749.4 1042.6-9.0777 25.427-10.13-15.011z" fill="#008cce"/>
     <path d="m1751.5 1095-18.287-8.9115 23.901-11.11z" fill="#008ad2"/>
     <path d="m1788.4 1086.2 6.2927-33.427 18.269 7.5021z" fill="#0098d6"/>
     <path d="m1788.9 1031.6 5.7842 21.128-19.639 2.0854z" fill="#009dd1"/>
     <path d="m1751.5 1095 18.838 10.52h-36.25z" fill="#008ad2"/>
     <path d="m1775.1 1054.8-4.7563 32.564-13.247-12.398z" fill="#0096d3"/>
     <path d="m1740.4 1068 17.621-10.344-0.9059 17.31z" fill="#0087cf"/>
     <path d="m1749.4 1042.6 25.641 12.226-17.098 2.856z" fill="#008cce"/>
     <path d="m1757.1 1075-23.901 11.11 7.1857-18.076z" fill="#008dd2"/>
     <path d="m1701.3 1078.2 5.4156-21.679 13.697 14.938z" fill="#0077ca"/>
     <path d="m1733.2 1086.1 0.8756 19.432-18.125-8.9189z" fill="#0083cf"/>
     <path d="m1770.3 1105.5-18.838-10.52 18.861-7.6232-0.023 18.143z" fill="#0091d5"/>
     <path d="m1734 1105.5-0.8756-19.432 18.287 8.9115z" fill="#0083d0"/>
     <path d="m1734 1105.5h-36.25l18.125-8.9189z" fill="#0083d0"/>
     <path d="m1701.3 1078.2 14.653 18.426-18.125 8.9189z" fill="#0077ca"/>
    </g>
   </g>
  </g>
 </g>
</svg>
