<svg width="70" height="70" viewBox="0 0 70 70" fill="none" xmlns="http://www.w3.org/2000/svg">
<circle cx="35" cy="35" r="35" fill="#574F8A"/>
<path d="M35 22.7291C37.2264 22.7291 39.0312 20.9243 39.0312 18.6979C39.0312 16.4715 37.2264 14.6666 35 14.6666C32.7736 14.6666 30.9688 16.4715 30.9688 18.6979C30.9688 20.9243 32.7736 22.7291 35 22.7291Z" stroke="white" stroke-width="2" stroke-linecap="round" stroke-linejoin="round"/>
<path d="M42.1668 30.7917C41.9335 29.0564 41.0785 27.4647 39.7605 26.3121C38.4425 25.1594 36.7511 24.5242 35.0002 24.5242C33.2493 24.5242 31.5578 25.1594 30.2398 26.3121C28.9219 27.4647 28.0668 29.0564 27.8335 30.7917" stroke="white" stroke-width="2" stroke-linecap="round" stroke-linejoin="round"/>
<path d="M35 54.8888V43.6611C35 41.8871 34.303 40.1857 33.0624 38.9313C31.8218 37.6769 30.1391 36.9722 28.3846 36.9722H13.5" stroke="white" stroke-width="2" stroke-linecap="round" stroke-linejoin="round"/>
<path d="M20.368 43.8402L13.5 36.9722L20.368 30.1041" stroke="white" stroke-width="2" stroke-linecap="round" stroke-linejoin="round"/>
<path d="M35 54.8888V43.6611C35 41.8871 35.697 40.1857 36.9376 38.9313C38.1782 37.6769 39.8609 36.9722 41.6154 36.9722H56.5" stroke="white" stroke-width="2" stroke-linecap="round" stroke-linejoin="round"/>
<path d="M49.632 43.8402L56.5 36.9722L49.632 30.1041" stroke="white" stroke-width="2" stroke-linecap="round" stroke-linejoin="round"/>
</svg>
