<svg width="70" height="70" viewBox="0 0 70 70" fill="none" xmlns="http://www.w3.org/2000/svg">
<circle cx="35" cy="35" r="35" fill="#FF8700"/>
<path d="M23.9455 34L32.8909 38.4727L23.9455 42.9455L15 38.4727L23.9455 34Z" stroke="white" stroke-width="2" stroke-linecap="round" stroke-linejoin="round"/>
<path d="M23.9453 42.9455V53.0091L32.8908 48.5364V38.4727L23.9453 42.9455Z" stroke="white" stroke-width="2" stroke-linecap="round" stroke-linejoin="round"/>
<path d="M15 38.4727V48.5364L23.9455 53.0091V42.9455L15 38.4727Z" stroke="white" stroke-width="2" stroke-linecap="round" stroke-linejoin="round"/>
<path d="M34.9455 16L43.8909 20.4727L34.9455 24.9455L26 20.4727L34.9455 16Z" stroke="white" stroke-width="2" stroke-linecap="round" stroke-linejoin="round"/>
<path d="M34.9453 24.9455V35.0091L43.8908 30.5364V20.4727L34.9453 24.9455Z" stroke="white" stroke-width="2" stroke-linecap="round" stroke-linejoin="round"/>
<path d="M26 20.4727V30.5364L34.9455 35.0091V24.9455L26 20.4727Z" stroke="white" stroke-width="2" stroke-linecap="round" stroke-linejoin="round"/>
<path d="M45.9455 34L54.8909 38.4727L45.9455 42.9455L37 38.4727L45.9455 34Z" stroke="white" stroke-width="2" stroke-linecap="round" stroke-linejoin="round"/>
<path d="M45.9453 42.9455V53.0091L54.8908 48.5364V38.4727L45.9453 42.9455Z" stroke="white" stroke-width="2" stroke-linecap="round" stroke-linejoin="round"/>
<path d="M37 38.4727V48.5364L45.9455 53.0091V42.9455L37 38.4727Z" stroke="white" stroke-width="2" stroke-linecap="round" stroke-linejoin="round"/>
</svg>
